<?xml version="1.0" standalone="no"?>
<!DOCTYPE svg PUBLIC "-//W3C//DTD SVG 20010904//EN"
 "http://www.w3.org/TR/2001/REC-SVG-20010904/DTD/svg10.dtd">
<svg version="1.0" xmlns="http://www.w3.org/2000/svg"
 width="227.000000pt" height="227.000000pt" viewBox="0 0 227.000000 227.000000"
 preserveAspectRatio="xMidYMid meet">
<metadata>
Created by potrace 1.11, written by Peter Selinger 2001-2013
</metadata>
<g transform="translate(0.000000,227.000000) scale(0.100000,-0.100000)"
fill="#000000" stroke="none">
<path d="M1258 2245 c-2 -3 -25 -7 -50 -9 -70 -7 -194 -52 -273 -98 -80 -47
-197 -160 -238 -230 -33 -57 -33 -60 -3 -48 119 45 397 56 494 19 12 -5 22 -7
22 -4 0 2 30 -7 68 -19 298 -102 517 -324 614 -623 12 -38 21 -74 21 -80 0
-24 12 -13 43 40 207 348 70 791 -301 971 -49 24 -121 52 -160 61 -65 16 -227
29 -237 20z"/>
<path d="M825 1823 c-406 -67 -698 -375 -760 -799 l-5 -40 187 -1 c168 -1 194
-4 243 -23 139 -56 184 -70 247 -80 38 -6 80 -13 94 -15 15 -3 47 -7 70 -10
83 -10 98 -15 101 -38 6 -37 -12 -64 -61 -90 -37 -20 -58 -24 -106 -22 -33 2
-72 6 -87 9 -14 3 -54 8 -88 10 -84 4 -106 -12 -96 -76 4 -26 13 -52 21 -58 8
-7 65 -25 127 -40 109 -27 182 -31 288 -16 14 2 63 10 109 16 83 13 85 12 103
-10 19 -23 24 -55 10 -64 -19 -11 -324 -85 -373 -90 -28 -3 -124 -8 -213 -11
l-161 -6 -149 66 c-82 35 -151 64 -152 62 -8 -8 98 -148 156 -206 142 -142
288 -216 508 -258 44 -9 236 -8 272 1 14 4 40 9 58 12 70 12 220 77 307 133
77 50 175 146 235 231 l39 57 -97 -64 c-53 -36 -119 -75 -147 -88 -59 -28 -70
-29 -335 -52 -47 -4 -148 -7 -225 -7 -198 1 -245 10 -245 50 0 34 23 41 135
42 55 0 117 3 138 6 144 23 356 108 358 143 1 10 3 31 5 48 8 68 -42 75 -211
29 -27 -7 -66 -15 -85 -17 -47 -5 -121 17 -142 44 -25 30 -23 67 5 78 35 14
157 50 217 63 30 7 111 41 178 76 126 63 161 75 267 87 93 11 263 27 293 28
34 1 3 206 -50 337 -36 88 -118 216 -180 281 -207 218 -512 321 -803 272z"/>
</g>
</svg>
