<svg xmlns="http://www.w3.org/2000/svg" xmlns:xlink="http://www.w3.org/1999/xlink" width="139.45" height="139.45" viewBox="0 0 139.45 139.45"><defs><style>.a{fill:url(#a);}.b{isolation:isolate;}.c{fill:#87c35b;}.d{fill:#e98a50;}</style><linearGradient id="a" x1="1.05" y1="0.662" x2="-0.459" y2="1.459" gradientUnits="objectBoundingBox"><stop offset="0" stop-color="#ffa54b"/><stop offset="1" stop-color="#c35b5b"/></linearGradient></defs><g transform="translate(-222.481 -141.158)"><path class="a" d="M0,0C-31.183-25.874,52.966-17.655,70.622,0s-10.746,42.9,0,70.622S39.174,83.334,39.174,83.334,37.919,80.725,0,70.622c-14.6-3.89-15.192-10.916-16.369-18.5-1.764-11.325,2.526-23.465,2.526-23.465S31.183,25.874,0,0Z" transform="translate(246 206.937) rotate(-45)"/><g class="b" transform="translate(240 167)"><g transform="translate(0 0)"><g transform="translate(80.678)"><path class="c" d="M357,90.424s-11.114-.5-10.355-13.175C346.647,77.249,357.95,79.289,357,90.424Z" transform="translate(-346.609 -77.249)"/><g transform="translate(0.037)"><path class="c" d="M357.1,90.424,346.749,77.249a12.353,12.353,0,0,1,8.645,5.46A12.211,12.211,0,0,1,357.1,90.424Z" transform="translate(-346.749 -77.249)"/></g></g><g transform="translate(21.164)"><g transform="translate(0.016)"><path class="c" d="M123.239,90.424s11.114-.5,10.355-13.175C133.594,77.249,122.291,79.289,123.239,90.424Z" transform="translate(-123.183 -77.249)"/></g><path class="c" d="M123.194,90.424l10.355-13.175a12.353,12.353,0,0,0-8.645,5.46A12.213,12.213,0,0,0,123.194,90.424Z" transform="translate(-123.121 -77.249)"/></g><g transform="translate(13.097 2.761)"><g transform="translate(0.139)"><path class="c" d="M97.63,104.224s7.541-8.285-1.813-16.739C95.818,87.485,89.213,97,97.63,104.224Z" transform="translate(-93.354 -87.485)"/></g><path class="c" d="M97.247,104.224,95.434,87.485a12.662,12.662,0,0,0-2.339,10.043A12.092,12.092,0,0,0,97.247,104.224Z" transform="translate(-92.831 -87.485)"/></g><g transform="translate(16.353 13.495)"><path class="c" d="M105.058,132.579s5.75-9.647,16.375-2.908C121.433,129.67,114.258,138.749,105.058,132.579Z" transform="translate(-105.058 -127.28)"/><g transform="translate(0 2.391)"><path class="c" d="M105.058,139.051l16.375-2.908a12.369,12.369,0,0,1-8.869,5.078A11.824,11.824,0,0,1,105.058,139.051Z" transform="translate(-105.058 -136.143)"/></g></g><g transform="translate(5.146 17.393)"><g transform="translate(0.184)"><path class="c" d="M71.075,157.054s4.6-10.259-6.892-15.325C64.183,141.729,60.848,152.857,71.075,157.054Z" transform="translate(-63.664 -141.729)"/></g><path class="c" d="M70.568,157.054l-6.892-15.325a12.7,12.7,0,0,0,.88,10.281A11.952,11.952,0,0,0,70.568,157.054Z" transform="translate(-62.972 -141.729)"/></g><g transform="translate(11.422 23.933)"><path class="c" d="M86.541,174.458s2.481-10.985,14.655-7.952C101.2,166.506,97.185,177.4,86.541,174.458Z" transform="translate(-86.541 -165.976)"/><g transform="translate(0 0.53)"><path class="c" d="M86.541,175.892,101.2,167.94a12.508,12.508,0,0,1-6.855,7.634A11.784,11.784,0,0,1,86.541,175.892Z" transform="translate(-86.541 -167.94)"/></g></g><g transform="translate(0 38.37)"><path class="c" d="M57.332,229.224s-1.251-11.2-13.684-9.564C43.648,219.66,46.429,230.944,57.332,229.224Z" transform="translate(-43.648 -219.498)"/><g transform="translate(0 0.163)"><path class="c" d="M57.332,229.665,43.648,220.1a12.556,12.556,0,0,0,5.968,8.363A11.793,11.793,0,0,0,57.332,229.665Z" transform="translate(-43.648 -220.101)"/></g></g><g transform="translate(12.206 33.537)"><g transform="translate(0 0)"><path class="c" d="M89.942,216.028s-3.441-10.716,8.543-14.447C98.484,201.581,100.568,213.017,89.942,216.028Z" transform="translate(-89.484 -201.581)"/></g><g transform="translate(0.458 0)"><path class="c" d="M91.2,216.028l8.543-14.447A12.683,12.683,0,0,1,97.735,211.7,11.908,11.908,0,0,1,91.2,216.028Z" transform="translate(-91.203 -201.581)"/></g></g><g transform="translate(3.532 56.586)"><path class="c" d="M72.215,294.558s-3.45-10.713-15.3-6.579C56.912,287.979,61.877,298.465,72.215,294.558Z" transform="translate(-56.912 -287.03)"/><g transform="translate(0 0.949)"><path class="c" d="M72.215,297.127l-15.3-6.579a12.467,12.467,0,0,0,7.507,6.976A11.787,11.787,0,0,0,72.215,297.127Z" transform="translate(-56.912 -290.548)"/></g></g><g transform="translate(16.44 48.319)"><path class="c" d="M106.757,272.274s-5.5-9.8,5.5-15.892C112.255,256.382,116.568,267.16,106.757,272.274Z" transform="translate(-105.382 -256.382)"/><g transform="translate(1.375)"><path class="c" d="M110.545,272.274l5.5-15.892a12.693,12.693,0,0,1,.039,10.319A11.993,11.993,0,0,1,110.545,272.274Z" transform="translate(-110.545 -256.382)"/></g></g><g transform="translate(11.687 70.29)"><path class="c" d="M104.154,341.791s-7.125-8.655-16.621-.366C87.533,341.426,95.981,349.3,104.154,341.791Z" transform="translate(-87.533 -337.834)"/><g transform="translate(0 3.592)"><path class="c" d="M104.154,351.516l-16.621-.366a12.313,12.313,0,0,0,9.525,3.661A11.869,11.869,0,0,0,104.154,351.516Z" transform="translate(-87.533 -351.15)"/></g></g><g transform="translate(23.313 57.896)"><path class="c" d="M135.274,308.712s-8.692-7.034-.708-16.824C134.566,291.888,142.515,300.279,135.274,308.712Z" transform="translate(-131.192 -291.888)"/><g transform="translate(3.373)"><path class="c" d="M144.568,308.712l-.708-16.824a12.618,12.618,0,0,1,3.812,9.57A12.151,12.151,0,0,1,144.568,308.712Z" transform="translate(-143.86 -291.888)"/></g></g><g transform="translate(92.167 2.761)"><path class="c" d="M392.624,104.224s-7.541-8.285,1.813-16.739C394.437,87.485,401.041,97,392.624,104.224Z" transform="translate(-389.751 -87.485)"/><g transform="translate(2.873)"><path class="c" d="M400.539,104.224l1.813-16.739a12.661,12.661,0,0,1,2.339,10.043A12.09,12.09,0,0,1,400.539,104.224Z" transform="translate(-400.539 -87.485)"/></g></g><g transform="translate(79.824 13.495)"><g transform="translate(0)"><path class="c" d="M359.777,132.579s-5.75-9.647-16.375-2.908C343.4,129.67,350.577,138.749,359.777,132.579Z" transform="translate(-343.402 -127.28)"/></g><g transform="translate(0 2.391)"><path class="c" d="M359.777,139.051,343.4,136.143a12.369,12.369,0,0,0,8.869,5.078A11.824,11.824,0,0,0,359.777,139.051Z" transform="translate(-343.402 -136.143)"/></g></g><g transform="translate(98.901 17.393)"><path class="c" d="M415.948,157.054s-4.6-10.259,6.892-15.325C422.84,141.729,426.175,152.857,415.948,157.054Z" transform="translate(-415.038 -141.729)"/><g transform="translate(0.911)"><path class="c" d="M418.457,157.054l6.892-15.325a12.7,12.7,0,0,1-.88,10.281A11.952,11.952,0,0,1,418.457,157.054Z" transform="translate(-418.457 -141.729)"/></g></g><g transform="translate(86.476 23.933)"><path class="c" d="M383.035,174.458s-2.481-10.985-14.655-7.952C368.38,166.506,372.391,177.4,383.035,174.458Z" transform="translate(-368.38 -165.976)"/><g transform="translate(0 0.53)"><path class="c" d="M383.035,175.892,368.38,167.94a12.508,12.508,0,0,0,6.855,7.634A11.785,11.785,0,0,0,383.035,175.892Z" transform="translate(-368.38 -167.94)"/></g></g><g transform="translate(98.87 38.37)"><path class="c" d="M414.921,229.224s1.251-11.2,13.684-9.564C428.6,219.66,425.824,230.944,414.921,229.224Z" transform="translate(-414.921 -219.498)"/><g transform="translate(0 0.163)"><path class="c" d="M414.921,229.665,428.6,220.1a12.556,12.556,0,0,1-5.968,8.363A11.792,11.792,0,0,1,414.921,229.665Z" transform="translate(-414.921 -220.101)"/></g></g><g transform="translate(91.04 33.537)"><g transform="translate(0.141 0)"><path class="c" d="M394.757,216.028s3.441-10.716-8.543-14.447C386.214,201.581,384.131,213.017,394.757,216.028Z" transform="translate(-386.049 -201.581)"/></g><g transform="translate(0 0)"><path class="c" d="M394.368,216.028l-8.543-14.447a12.683,12.683,0,0,0,2.011,10.116A11.907,11.907,0,0,0,394.368,216.028Z" transform="translate(-385.519 -201.581)"/></g></g><g transform="translate(93.718 56.586)"><path class="c" d="M395.573,294.558s3.45-10.713,15.3-6.579C410.876,287.979,405.911,298.465,395.573,294.558Z" transform="translate(-395.573 -287.03)"/><g transform="translate(0 0.949)"><path class="c" d="M395.573,297.127l15.3-6.579a12.467,12.467,0,0,1-7.507,6.976A11.788,11.788,0,0,1,395.573,297.127Z" transform="translate(-395.573 -290.548)"/></g></g><g transform="translate(88.105 48.319)"><g transform="translate(0.191)"><path class="c" d="M381.658,272.274s5.5-9.8-5.5-15.892C376.16,256.382,371.847,267.16,381.658,272.274Z" transform="translate(-375.216 -256.382)"/></g><g transform="translate(0)"><path class="c" d="M381.131,272.274l-5.5-15.892a12.693,12.693,0,0,0-.039,10.319A11.993,11.993,0,0,0,381.131,272.274Z" transform="translate(-374.498 -256.382)"/></g></g><g transform="translate(84.246 70.29)"><g transform="translate(0)"><path class="c" d="M360,341.791s7.125-8.655,16.621-.366C376.625,341.426,368.177,349.3,360,341.791Z" transform="translate(-360.004 -337.834)"/></g><g transform="translate(0 3.592)"><path class="c" d="M360,351.516l16.621-.366a12.312,12.312,0,0,1-9.525,3.661A11.869,11.869,0,0,1,360,351.516Z" transform="translate(-360.004 -351.15)"/></g></g><g transform="translate(82.03 57.896)"><g transform="translate(0.084)"><path class="c" d="M355.044,308.712s8.692-7.034.708-16.824C355.753,291.888,347.8,300.279,355.044,308.712Z" transform="translate(-352 -291.888)"/></g><g transform="translate(0)"><path class="c" d="M354.813,308.712l.708-16.824a12.617,12.617,0,0,0-3.812,9.57A12.151,12.151,0,0,0,354.813,308.712Z" transform="translate(-351.684 -291.888)"/></g></g><g transform="translate(11.434 10.765)"><path class="c" d="M131.277,192.19c-24.643,0-44.692-20.308-44.692-45.269A45.607,45.607,0,0,1,97.4,117.394a.66.66,0,0,1,.939-.071.681.681,0,0,1,.07.951,44.247,44.247,0,0,0-10.492,28.647c0,24.218,19.452,43.92,43.361,43.92s43.361-19.7,43.361-43.92a44.247,44.247,0,0,0-10.492-28.647.681.681,0,0,1,.07-.951.66.66,0,0,1,.939.071,45.608,45.608,0,0,1,10.814,29.527C175.97,171.882,155.921,192.19,131.277,192.19Z" transform="translate(-86.585 -117.159)"/></g></g></g><path class="d" d="M-7.282-14.584c1.325,0-1.914,8.549.7,8.991C6.27-3.427,32,4.244,32,8c0,4.418-21.478,16.29-30.315,16.29S-16.275,13.238-19.489,6.6s-3.146-6.73-.748-9.022C-17.056-6.119-13.37-14.584-7.282-14.584Z" transform="translate(278 238)"/></g></svg>