<svg xmlns="http://www.w3.org/2000/svg" width="349" height="150.876" viewBox="0 0 349 150.876"><defs><style>.a{fill:#C8ACFF;}</style></defs><path class="a" d="M1204.874-1325.124H993.884a4.976,4.976,0,0,1-2.554-1.479,214.13,214.13,0,0,1,4.622-42.534,212.42,212.42,0,0,1,12.577-39.639,214.173,214.173,0,0,1,19.688-35.9A216.077,216.077,0,0,1,1054.172-1476h39.8a.521.521,0,0,0-.289.228.469.469,0,0,0-.054.357.549.549,0,0,0,.242.341.48.48,0,0,0,.26.075.493.493,0,0,0,.422-.234.49.49,0,0,0,.061-.374.491.491,0,0,0-.221-.307l-.056-.034a.465.465,0,0,0-.112-.051h110.653v150.875Zm-1.612-83.525a.492.492,0,0,0-.422.235.5.5,0,0,0,.162.681l.059.035a.5.5,0,0,0,.258.072.5.5,0,0,0,.424-.236.5.5,0,0,0-.164-.681l-.057-.034A.5.5,0,0,0,1203.262-1408.649Zm-2.85-1.769a.5.5,0,0,0-.416.247.469.469,0,0,0-.054.358.549.549,0,0,0,.242.341.492.492,0,0,0,.261.075.5.5,0,0,0,.422-.233.5.5,0,0,0-.159-.681l-.058-.035A.443.443,0,0,0,1200.412-1410.418Zm-2.872-1.772a.5.5,0,0,0-.417.246.469.469,0,0,0-.054.358.548.548,0,0,0,.242.341.5.5,0,0,0,.259.074.5.5,0,0,0,.424-.234.5.5,0,0,0-.161-.682l-.056-.034A.45.45,0,0,0,1197.54-1412.19Zm-2.874-1.773a.5.5,0,0,0-.416.246.467.467,0,0,0-.055.357.549.549,0,0,0,.242.342.5.5,0,0,0,.261.075.5.5,0,0,0,.422-.234.5.5,0,0,0-.159-.682l-.057-.035A.452.452,0,0,0,1194.666-1413.963Zm-2.873-1.773a.5.5,0,0,0-.416.246.47.47,0,0,0-.054.358.548.548,0,0,0,.242.341.489.489,0,0,0,.261.074.5.5,0,0,0,.422-.234.489.489,0,0,0,.061-.373.493.493,0,0,0-.22-.308l-.057-.035A.452.452,0,0,0,1191.793-1415.736Zm-2.9-1.778a.492.492,0,0,0-.422.236.5.5,0,0,0,.162.681l.057.035a.505.505,0,0,0,.258.073.5.5,0,0,0,.423-.236.5.5,0,0,0-.162-.682l-.057-.035A.5.5,0,0,0,1188.9-1417.514Zm-2.85-1.768a.5.5,0,0,0-.415.246.47.47,0,0,0-.055.359.547.547,0,0,0,.242.34.5.5,0,0,0,.259.074.5.5,0,0,0,.424-.234.492.492,0,0,0,.061-.374.492.492,0,0,0-.222-.308l-.055-.034A.452.452,0,0,0,1186.046-1419.282Zm-2.9-1.778a.49.49,0,0,0-.422.235.492.492,0,0,0-.06.374.492.492,0,0,0,.222.307l.057.035a.5.5,0,0,0,.258.073.505.505,0,0,0,.425-.236.5.5,0,0,0-.163-.681l-.057-.035A.5.5,0,0,0,1183.149-1421.06Zm-2.85-1.768a.5.5,0,0,0-.415.246.468.468,0,0,0-.055.357.548.548,0,0,0,.242.341.485.485,0,0,0,.261.075.494.494,0,0,0,.422-.233.492.492,0,0,0,.061-.374.49.49,0,0,0-.22-.307l-.057-.035A.45.45,0,0,0,1180.3-1422.828Zm-2.9-1.779a.493.493,0,0,0-.423.235.491.491,0,0,0-.06.374.492.492,0,0,0,.222.307l.058.035a.492.492,0,0,0,.258.073.491.491,0,0,0,.423-.236.5.5,0,0,0-.162-.681l-.057-.035A.5.5,0,0,0,1177.4-1424.607Zm-2.851-1.767a.5.5,0,0,0-.416.246.468.468,0,0,0-.054.358.548.548,0,0,0,.242.341.5.5,0,0,0,.259.075.49.49,0,0,0,.422-.234.49.49,0,0,0,.062-.374.492.492,0,0,0-.221-.309l-.056-.034A.455.455,0,0,0,1174.552-1426.374Zm-2.874-1.774a.5.5,0,0,0-.415.245.469.469,0,0,0-.055.357.552.552,0,0,0,.241.343.5.5,0,0,0,.261.075.5.5,0,0,0,.422-.235.491.491,0,0,0,.062-.374.49.49,0,0,0-.221-.307l-.056-.035A.455.455,0,0,0,1171.678-1428.147Zm-2.873-1.773a.5.5,0,0,0-.416.246.468.468,0,0,0-.055.357.548.548,0,0,0,.242.341.492.492,0,0,0,.261.075.5.5,0,0,0,.422-.234.49.49,0,0,0,.061-.373.492.492,0,0,0-.22-.308l-.057-.035A.454.454,0,0,0,1168.8-1429.921Zm-2.874-1.773a.5.5,0,0,0-.415.245.471.471,0,0,0-.054.36.548.548,0,0,0,.241.34.489.489,0,0,0,.26.074.493.493,0,0,0,.422-.234.5.5,0,0,0-.159-.682l-.057-.033A.457.457,0,0,0,1165.931-1431.693Zm-2.9-1.778a.493.493,0,0,0-.423.236.5.5,0,0,0,.163.681l.058.034a.491.491,0,0,0,.258.073.49.49,0,0,0,.423-.236.5.5,0,0,0-.164-.681l-.056-.035A.5.5,0,0,0,1163.035-1433.472Zm-2.851-1.768a.494.494,0,0,0-.416.246.465.465,0,0,0-.055.356.549.549,0,0,0,.242.343.505.505,0,0,0,.261.074.493.493,0,0,0,.422-.234.49.49,0,0,0,.062-.374.494.494,0,0,0-.221-.308l-.056-.034A.456.456,0,0,0,1160.184-1435.239Zm-2.9-1.778a.491.491,0,0,0-.423.235.494.494,0,0,0-.059.376.49.49,0,0,0,.222.305l.057.035a.492.492,0,0,0,.258.073.494.494,0,0,0,.424-.236.5.5,0,0,0-.163-.681l-.058-.035A.5.5,0,0,0,1157.288-1437.018Zm-2.85-1.768a.5.5,0,0,0-.417.246.47.47,0,0,0-.054.359.546.546,0,0,0,.242.34.5.5,0,0,0,.26.074.493.493,0,0,0,.422-.234.5.5,0,0,0-.159-.682l-.057-.034A.45.45,0,0,0,1154.438-1438.785Zm-2.9-1.778a.494.494,0,0,0-.423.235.5.5,0,0,0,.164.681l.058.036a.5.5,0,0,0,.258.072.491.491,0,0,0,.423-.236.494.494,0,0,0,.059-.376.489.489,0,0,0-.223-.3l-.056-.036A.506.506,0,0,0,1151.54-1440.563Zm-2.85-1.768a.5.5,0,0,0-.416.246.465.465,0,0,0-.055.356.547.547,0,0,0,.241.342.489.489,0,0,0,.261.075.492.492,0,0,0,.422-.234.489.489,0,0,0,.062-.372.492.492,0,0,0-.221-.309l-.056-.034A.448.448,0,0,0,1148.691-1442.331Zm-2.874-1.772a.5.5,0,0,0-.417.246.527.527,0,0,0,.188.7.5.5,0,0,0,.261.075.494.494,0,0,0,.422-.234.5.5,0,0,0-.159-.682l-.057-.035A.451.451,0,0,0,1145.817-1444.1Zm-2.874-1.773a.5.5,0,0,0-.416.246.47.47,0,0,0-.054.359.549.549,0,0,0,.242.34.488.488,0,0,0,.26.074.493.493,0,0,0,.422-.234.49.49,0,0,0,.061-.373.492.492,0,0,0-.221-.308l-.056-.034A.449.449,0,0,0,1142.943-1445.877Zm-2.873-1.773a.5.5,0,0,0-.416.246.469.469,0,0,0-.054.359.546.546,0,0,0,.241.34.494.494,0,0,0,.261.075.5.5,0,0,0,.421-.234.5.5,0,0,0-.158-.682l-.057-.035A.456.456,0,0,0,1140.071-1447.65Zm-2.9-1.779a.493.493,0,0,0-.426.241.5.5,0,0,0,.169.679l.058.034a.491.491,0,0,0,.254.071.493.493,0,0,0,.427-.24.5.5,0,0,0-.169-.679l-.057-.033A.493.493,0,0,0,1137.173-1449.429Zm-2.85-1.768a.5.5,0,0,0-.417.247.526.526,0,0,0,.188.7.5.5,0,0,0,.261.074.494.494,0,0,0,.422-.234.494.494,0,0,0,.061-.374.487.487,0,0,0-.22-.307l-.058-.035A.444.444,0,0,0,1134.323-1451.2Zm-2.9-1.777a.492.492,0,0,0-.423.237.5.5,0,0,0,.163.68l.058.034a.489.489,0,0,0,.258.074.5.5,0,0,0,.422-.237.5.5,0,0,0-.162-.68l-.058-.035A.494.494,0,0,0,1131.427-1452.975Zm-2.852-1.77a.5.5,0,0,0-.417.25.475.475,0,0,0-.046.382.547.547,0,0,0,.236.316.5.5,0,0,0,.258.073.5.5,0,0,0,.425-.235.494.494,0,0,0,.059-.376.49.49,0,0,0-.223-.305l-.056-.035A.447.447,0,0,0,1128.575-1454.744Zm-2.872-1.772a.5.5,0,0,0-.416.247.471.471,0,0,0-.053.359.546.546,0,0,0,.241.339.485.485,0,0,0,.259.075.5.5,0,0,0,.423-.234.5.5,0,0,0-.159-.681l-.057-.035A.449.449,0,0,0,1125.7-1456.516Zm-2.875-1.773a.5.5,0,0,0-.416.246.529.529,0,0,0,.188.7.506.506,0,0,0,.261.074.493.493,0,0,0,.422-.234.5.5,0,0,0-.159-.682l-.058-.034A.447.447,0,0,0,1122.828-1458.289Zm-2.872-1.773a.5.5,0,0,0-.417.247.469.469,0,0,0-.054.357.549.549,0,0,0,.242.341.491.491,0,0,0,.261.075.5.5,0,0,0,.422-.234.5.5,0,0,0-.161-.681l-.056-.035A.445.445,0,0,0,1119.956-1460.062Zm-2.9-1.778a.5.5,0,0,0-.423.236.5.5,0,0,0,.165.68l.057.035a.492.492,0,0,0,.258.073.49.49,0,0,0,.423-.237.5.5,0,0,0-.162-.68l-.058-.034A.5.5,0,0,0,1117.059-1461.84Zm-2.849-1.768a.5.5,0,0,0-.416.247.472.472,0,0,0-.053.36.547.547,0,0,0,.241.339.478.478,0,0,0,.259.075.5.5,0,0,0,.423-.234.5.5,0,0,0-.159-.681l-.057-.035A.448.448,0,0,0,1114.209-1463.608Zm-2.9-1.778a.491.491,0,0,0-.423.236.5.5,0,0,0,.162.68l.057.034a.492.492,0,0,0,.258.074.5.5,0,0,0,.424-.237.49.49,0,0,0,.06-.373.492.492,0,0,0-.222-.307l-.057-.034A.5.5,0,0,0,1111.313-1465.386Zm-2.85-1.768a.5.5,0,0,0-.417.247.48.48,0,0,0-.048.377.551.551,0,0,0,.236.322.5.5,0,0,0,.261.074.5.5,0,0,0,.422-.233.5.5,0,0,0-.161-.682l-.056-.035A.444.444,0,0,0,1108.462-1467.154Zm-2.873-1.773a.5.5,0,0,0-.416.247.469.469,0,0,0-.053.359.546.546,0,0,0,.242.34.489.489,0,0,0,.26.075.493.493,0,0,0,.422-.234.5.5,0,0,0-.16-.682l-.056-.034A.447.447,0,0,0,1105.589-1468.927Zm-2.875-1.773a.5.5,0,0,0-.415.247.471.471,0,0,0-.053.359.545.545,0,0,0,.241.339.477.477,0,0,0,.259.075.5.5,0,0,0,.423-.234.5.5,0,0,0-.159-.681l-.057-.035A.449.449,0,0,0,1102.715-1470.7Zm-2.873-1.773a.493.493,0,0,0-.415.247.47.47,0,0,0-.054.359.546.546,0,0,0,.241.34.49.49,0,0,0,.26.075.5.5,0,0,0,.423-.234.5.5,0,0,0-.16-.681l-.056-.034A.448.448,0,0,0,1099.841-1472.473Zm-2.873-1.773a.5.5,0,0,0-.416.246.527.527,0,0,0,.188.7.5.5,0,0,0,.26.074.5.5,0,0,0,.423-.233.5.5,0,0,0,.061-.375.49.49,0,0,0-.222-.307l-.056-.035A.447.447,0,0,0,1096.968-1474.246ZM1205.2-1325.125v-44.539c.1.906.233,1.847.393,2.8v41.744h-.393Zm129.984-.017h-66.066a82.09,82.09,0,0,0,24.9-8.12,83.019,83.019,0,0,0,20.728-15.12,82.912,82.912,0,0,0,15.133-20.7,81.811,81.811,0,0,0,8.121-24.872v66.946a5.012,5.012,0,0,1-2.82,1.87Zm.253-1.948a.5.5,0,0,0-.423.235.49.49,0,0,0-.059.374.493.493,0,0,0,.223.307l.057.034a.5.5,0,0,0,.259.073.5.5,0,0,0,.424-.236.5.5,0,0,0-.164-.681l-.057-.034A.5.5,0,0,0,1335.442-1327.09Zm-2.85-1.768a.5.5,0,0,0-.417.246.471.471,0,0,0-.052.359.548.548,0,0,0,.242.339.489.489,0,0,0,.26.075.493.493,0,0,0,.421-.234.492.492,0,0,0,.062-.375.491.491,0,0,0-.221-.308l-.057-.035A.451.451,0,0,0,1332.592-1328.858Zm-2.9-1.778a.5.5,0,0,0-.423.235.5.5,0,0,0,.164.681l.056.034a.5.5,0,0,0,.26.073.492.492,0,0,0,.423-.236.492.492,0,0,0,.06-.374.492.492,0,0,0-.223-.307l-.056-.034A.5.5,0,0,0,1329.7-1330.636Zm-2.851-1.769a.5.5,0,0,0-.416.246.47.47,0,0,0-.054.36.545.545,0,0,0,.242.339.484.484,0,0,0,.26.075.5.5,0,0,0,.423-.234.492.492,0,0,0,.061-.375.493.493,0,0,0-.223-.308l-.055-.034A.448.448,0,0,0,1326.845-1332.4Zm-2.9-1.778a.494.494,0,0,0-.423.235.5.5,0,0,0,.164.681l.057.034a.5.5,0,0,0,.259.074.5.5,0,0,0,.424-.237.5.5,0,0,0-.164-.681l-.057-.034A.5.5,0,0,0,1323.948-1334.182Zm-2.851-1.769a.5.5,0,0,0-.416.246.529.529,0,0,0,.189.7.492.492,0,0,0,.261.073.49.49,0,0,0,.421-.234.488.488,0,0,0,.062-.372.491.491,0,0,0-.221-.309l-.057-.034A.448.448,0,0,0,1321.1-1335.951Zm-2.871-1.772a.5.5,0,0,0-.418.246.47.47,0,0,0-.053.358.548.548,0,0,0,.241.34.5.5,0,0,0,.261.075.494.494,0,0,0,.422-.234.489.489,0,0,0,.062-.373.494.494,0,0,0-.222-.31l-.055-.035A.459.459,0,0,0,1318.226-1337.723Zm-2.876-1.773a.494.494,0,0,0-.415.245.471.471,0,0,0-.054.36.546.546,0,0,0,.242.339.484.484,0,0,0,.26.074.5.5,0,0,0,.423-.233.5.5,0,0,0-.162-.681l-.055-.034A.452.452,0,0,0,1315.35-1339.5Zm-2.871-1.773a.5.5,0,0,0-.417.246.473.473,0,0,0-.047.382.552.552,0,0,0,.236.317.482.482,0,0,0,.26.074.5.5,0,0,0,.422-.234.5.5,0,0,0-.161-.681l-.056-.036A.451.451,0,0,0,1312.479-1341.27Zm-2.875-1.773a.5.5,0,0,0-.417.245.526.526,0,0,0,.188.7.5.5,0,0,0,.262.075.492.492,0,0,0,.421-.234.491.491,0,0,0,.062-.374.494.494,0,0,0-.221-.308l-.056-.034A.456.456,0,0,0,1309.6-1343.043Zm-63.455,17.9h-40.067v-39.249a50.89,50.89,0,0,0,5.3,13.9,51.6,51.6,0,0,0,8.9,11.633,51.246,51.246,0,0,0,25.861,13.71Zm-38.749-2.791a.552.552,0,0,0-.458.254.5.5,0,0,0,.161.682.486.486,0,0,0,.259.074.5.5,0,0,0,.422-.234l.034-.057a.468.468,0,0,0-.176-.653A.462.462,0,0,0,1207.4-1327.933Zm1.77-2.864a.553.553,0,0,0-.459.254.5.5,0,0,0,.16.682.5.5,0,0,0,.261.074.5.5,0,0,0,.421-.234l.035-.056a.47.47,0,0,0-.177-.653A.459.459,0,0,0,1209.171-1330.8Zm1.769-2.863a.551.551,0,0,0-.46.257.5.5,0,0,0,.167.681.488.488,0,0,0,.255.072.5.5,0,0,0,.425-.237l.033-.055a.44.44,0,0,0,.056-.339.511.511,0,0,0-.239-.313A.453.453,0,0,0,1210.939-1333.66Zm1.77-2.863a.552.552,0,0,0-.459.255.5.5,0,0,0,.16.682.5.5,0,0,0,.26.074.5.5,0,0,0,.423-.234l.033-.055a.469.469,0,0,0-.177-.654A.456.456,0,0,0,1212.709-1336.522Zm1.77-2.864a.552.552,0,0,0-.459.255.49.49,0,0,0-.061.373.49.49,0,0,0,.221.308.491.491,0,0,0,.259.075.493.493,0,0,0,.422-.234l.034-.057a.443.443,0,0,0,.053-.359.52.52,0,0,0-.23-.294.453.453,0,0,0-.24-.067Zm1.768-2.863a.551.551,0,0,0-.458.255.489.489,0,0,0-.062.373.49.49,0,0,0,.221.308.483.483,0,0,0,.261.075.494.494,0,0,0,.421-.234l.035-.057a.468.468,0,0,0-.177-.652A.456.456,0,0,0,1216.248-1342.248Zm40.018,16.782h-.022v-49.985h.014l0-7.911c.047-.139.091-.278.131-.412v58.309h-.128Zm.46,0h0v-59.679a12.707,12.707,0,0,0,.2-2.262,20.244,20.244,0,0,0-.2-2.854v-16.16h80.952a81.419,81.419,0,0,1-1.7,16.25,80.712,80.712,0,0,1-4.755,15.146,81.355,81.355,0,0,1-7.484,13.717,82.093,82.093,0,0,1-9.889,11.966,82.193,82.193,0,0,1-11.97,9.891,81.579,81.579,0,0,1-13.727,7.492,81.022,81.022,0,0,1-15.159,4.77A81.779,81.779,0,0,1,1256.726-1325.467Zm50.006-19.349a.5.5,0,0,0-.418.246.527.527,0,0,0,.188.7.5.5,0,0,0,.261.074.5.5,0,0,0,.422-.234.491.491,0,0,0,.061-.374.491.491,0,0,0-.221-.308l-.057-.036A.448.448,0,0,0,1306.732-1344.816Zm-2.9-1.777a.5.5,0,0,0-.424.235.5.5,0,0,0,.164.681l.058.034a.51.51,0,0,0,.259.073.5.5,0,0,0,.424-.236.5.5,0,0,0-.164-.681l-.058-.034A.5.5,0,0,0,1303.833-1346.593Zm-2.849-1.768a.5.5,0,0,0-.417.246.527.527,0,0,0,.188.7.488.488,0,0,0,.261.074.5.5,0,0,0,.422-.233.5.5,0,0,0-.161-.682l-.055-.035A.454.454,0,0,0,1300.984-1348.362Zm-2.9-1.777a.5.5,0,0,0-.423.235.491.491,0,0,0-.06.374.491.491,0,0,0,.223.307l.057.034a.5.5,0,0,0,.258.073.5.5,0,0,0,.424-.236.5.5,0,0,0-.164-.681l-.056-.034A.509.509,0,0,0,1298.088-1350.139Zm-2.852-1.77a.5.5,0,0,0-.415.247.472.472,0,0,0-.053.36.546.546,0,0,0,.241.338.491.491,0,0,0,.261.076.5.5,0,0,0,.422-.234.493.493,0,0,0,.061-.374.491.491,0,0,0-.222-.307l-.057-.035A.448.448,0,0,0,1295.236-1351.908Zm-2.9-1.777a.492.492,0,0,0-.422.235.5.5,0,0,0,.162.681l.058.034a.492.492,0,0,0,.259.073.492.492,0,0,0,.424-.236.5.5,0,0,0-.165-.681l-.057-.034A.5.5,0,0,0,1292.34-1353.685Zm-2.849-1.768a.5.5,0,0,0-.417.247.468.468,0,0,0-.054.358.548.548,0,0,0,.242.341.5.5,0,0,0,.261.075.5.5,0,0,0,.42-.234.492.492,0,0,0,.062-.374.492.492,0,0,0-.221-.308l-.055-.035A.452.452,0,0,0,1289.491-1355.453Zm-2.875-1.774a.493.493,0,0,0-.418.251.47.47,0,0,0-.05.359.546.546,0,0,0,.245.337.482.482,0,0,0,.256.073.493.493,0,0,0,.424-.238.493.493,0,0,0,.058-.376.49.49,0,0,0-.224-.3l-.055-.034A.45.45,0,0,0,1286.616-1357.227Zm-2.874-1.773a.5.5,0,0,0-.416.246.472.472,0,0,0-.054.359.548.548,0,0,0,.242.34.494.494,0,0,0,.261.075.5.5,0,0,0,.422-.235.489.489,0,0,0,.061-.374.489.489,0,0,0-.221-.306l-.057-.035A.447.447,0,0,0,1283.742-1359Zm-2.872-1.773a.5.5,0,0,0-.417.246.469.469,0,0,0-.054.358.549.549,0,0,0,.242.341.5.5,0,0,0,.261.075.5.5,0,0,0,.422-.234.5.5,0,0,0-.16-.682l-.057-.034A.446.446,0,0,0,1280.87-1360.773Zm-2.9-1.778a.493.493,0,0,0-.422.235.493.493,0,0,0-.061.375.49.49,0,0,0,.223.306l.058.035a.5.5,0,0,0,.258.072.491.491,0,0,0,.423-.236.493.493,0,0,0,.06-.374.492.492,0,0,0-.223-.307l-.057-.034A.5.5,0,0,0,1277.973-1362.551Zm-2.85-1.768a.494.494,0,0,0-.417.247.469.469,0,0,0-.054.358.548.548,0,0,0,.242.341.491.491,0,0,0,.259.075.5.5,0,0,0,.423-.234.5.5,0,0,0-.16-.682l-.056-.035A.451.451,0,0,0,1275.123-1364.319Zm-2.9-1.778a.489.489,0,0,0-.422.235.493.493,0,0,0-.059.374.492.492,0,0,0,.222.307l.058.034a.491.491,0,0,0,.258.073.5.5,0,0,0,.424-.236.5.5,0,0,0-.165-.681l-.056-.034A.507.507,0,0,0,1272.225-1366.1Zm-2.848-1.768a.5.5,0,0,0-.417.246.468.468,0,0,0-.054.356.552.552,0,0,0,.242.343.493.493,0,0,0,.261.074.5.5,0,0,0,.422-.234.49.49,0,0,0,.061-.373.492.492,0,0,0-.221-.309l-.057-.036A.451.451,0,0,0,1269.377-1367.865Zm-2.9-1.777a.491.491,0,0,0-.422.235.49.49,0,0,0-.061.374.492.492,0,0,0,.224.307l.057.034a.5.5,0,0,0,.258.073.492.492,0,0,0,.423-.237.492.492,0,0,0,.06-.374.492.492,0,0,0-.223-.306l-.057-.034A.5.5,0,0,0,1266.479-1369.642Zm-2.851-1.77a.5.5,0,0,0-.417.247.527.527,0,0,0,.189.7.485.485,0,0,0,.26.075.5.5,0,0,0,.423-.234.5.5,0,0,0-.16-.681l-.056-.035A.449.449,0,0,0,1263.628-1371.412Zm-2.871-1.772a.5.5,0,0,0-.418.246.466.466,0,0,0-.054.356.551.551,0,0,0,.242.343.5.5,0,0,0,.261.075.5.5,0,0,0,.423-.234.5.5,0,0,0-.16-.682l-.056-.034A.451.451,0,0,0,1260.756-1373.183Zm-2.875-1.773a.5.5,0,0,0-.416.246.526.526,0,0,0,.188.7.494.494,0,0,0,.261.074.5.5,0,0,0,.422-.234.489.489,0,0,0,.061-.373.493.493,0,0,0-.222-.309l-.056-.035A.451.451,0,0,0,1257.882-1374.957Zm-1.969,49.49h0a49.673,49.673,0,0,1-19.247-3.989,50.015,50.015,0,0,1-15.753-10.636,49.929,49.929,0,0,1-10.679-15.709,49.472,49.472,0,0,1-4.029-19.207v-.113h35.8a8.069,8.069,0,0,0,2.285.329,12.658,12.658,0,0,0,2.875-.329h8.746Zm-37.895-19.645a.552.552,0,0,0-.459.254.5.5,0,0,0,.16.682.494.494,0,0,0,.261.075.5.5,0,0,0,.421-.234l.034-.057a.47.47,0,0,0-.176-.653A.459.459,0,0,0,1218.018-1345.112Zm1.768-2.863a.55.55,0,0,0-.458.255.488.488,0,0,0-.062.371.493.493,0,0,0,.221.31.5.5,0,0,0,.261.075.5.5,0,0,0,.421-.234l.035-.057a.469.469,0,0,0-.178-.654A.459.459,0,0,0,1219.786-1347.974Zm1.771-2.862a.556.556,0,0,0-.459.254.5.5,0,0,0,.159.682.5.5,0,0,0,.261.074.5.5,0,0,0,.422-.234l.034-.056a.443.443,0,0,0,.052-.36.517.517,0,0,0-.23-.294A.456.456,0,0,0,1221.558-1350.837Zm1.768-2.864a.552.552,0,0,0-.46.257.5.5,0,0,0,.166.68.486.486,0,0,0,.256.073.494.494,0,0,0,.425-.238l.033-.056a.442.442,0,0,0,.055-.341.508.508,0,0,0-.237-.311A.455.455,0,0,0,1223.326-1353.7Zm1.77-2.864a.552.552,0,0,0-.459.255.5.5,0,0,0,.16.682.5.5,0,0,0,.26.074.5.5,0,0,0,.42-.234l.036-.056a.471.471,0,0,0-.176-.654A.461.461,0,0,0,1225.1-1356.564Zm1.77-2.863a.551.551,0,0,0-.458.254.49.49,0,0,0-.061.374.493.493,0,0,0,.221.308.5.5,0,0,0,.261.074.493.493,0,0,0,.42-.233l.036-.057a.471.471,0,0,0-.177-.653A.458.458,0,0,0,1226.865-1359.427Zm1.769-2.863a.549.549,0,0,0-.458.255.487.487,0,0,0-.062.371.493.493,0,0,0,.221.31.49.49,0,0,0,.261.075.5.5,0,0,0,.421-.234l.034-.057a.47.47,0,0,0-.177-.653A.456.456,0,0,0,1228.634-1362.29Zm1.77-2.863a.55.55,0,0,0-.458.255.5.5,0,0,0,.159.682.5.5,0,0,0,.259.074.5.5,0,0,0,.422-.234l.036-.056a.469.469,0,0,0-.177-.654A.457.457,0,0,0,1230.4-1365.153Zm1.77-2.863a.55.55,0,0,0-.46.258.5.5,0,0,0,.164.68.5.5,0,0,0,.258.073.5.5,0,0,0,.424-.237l.034-.057a.47.47,0,0,0-.183-.652A.454.454,0,0,0,1232.174-1368.016Zm1.769-2.863a.551.551,0,0,0-.458.255.5.5,0,0,0,.16.682.482.482,0,0,0,.26.074.5.5,0,0,0,.42-.235l.034-.055a.44.44,0,0,0,.059-.339.509.509,0,0,0-.234-.314A.456.456,0,0,0,1233.943-1370.879Zm1.77-2.863a.548.548,0,0,0-.458.255.5.5,0,0,0,.16.682.5.5,0,0,0,.26.073.494.494,0,0,0,.421-.233l.035-.056a.47.47,0,0,0-.176-.653A.458.458,0,0,0,1235.712-1373.742Zm102.628,46.226V-1396.3a83.426,83.426,0,0,0,.658-10.024l0,76.319a5,5,0,0,1-.658,2.481Zm-348.3-1.82A5.089,5.089,0,0,1,990-1330v-141a5,5,0,0,1,.66-2.484v131.67c-.322,4.128-.528,8.327-.614,12.479Zm.949-16.318h0v-128.334A4.961,4.961,0,0,1,995-1476h57.167a214.984,214.984,0,0,0-42.017,60.08A212.934,212.934,0,0,0,990.993-1345.654Zm245.907-30.126h-.023v-3.9l.011.027.008.019,0,.007v3.848Zm-.353,0h-30.341a30.436,30.436,0,0,1,8.986-21.338c.663-.661,1.357-1.295,2.064-1.884a.542.542,0,0,0,.169.168.5.5,0,0,0,.261.075.5.5,0,0,0,.422-.234.5.5,0,0,0-.087-.627,30.4,30.4,0,0,1,8.693-4.755,30.731,30.731,0,0,1,9.833-1.716v21.46a5.166,5.166,0,0,0-.316,1.788,8,8,0,0,0,.316,2.234v4.826Zm-1.676-13.365a.492.492,0,0,0-.422.235.49.49,0,0,0-.06.374.492.492,0,0,0,.224.307l.057.034a.5.5,0,0,0,.258.073.49.49,0,0,0,.423-.236.5.5,0,0,0-.163-.681l-.057-.034A.5.5,0,0,0,1234.87-1389.146Zm-2.85-1.769a.5.5,0,0,0-.416.247.47.47,0,0,0-.053.359.547.547,0,0,0,.242.339.487.487,0,0,0,.259.075.5.5,0,0,0,.422-.234.491.491,0,0,0,.062-.374.49.49,0,0,0-.221-.308l-.056-.035A.446.446,0,0,0,1232.02-1390.915Zm-2.873-1.772a.5.5,0,0,0-.416.246.468.468,0,0,0-.054.358.548.548,0,0,0,.242.341.5.5,0,0,0,.261.074.494.494,0,0,0,.422-.234.488.488,0,0,0,.062-.372.493.493,0,0,0-.222-.31l-.055-.034A.451.451,0,0,0,1229.147-1392.687Zm-2.873-1.773a.5.5,0,0,0-.418.246.47.47,0,0,0-.053.358.549.549,0,0,0,.242.34.486.486,0,0,0,.26.075.5.5,0,0,0,.423-.234.5.5,0,0,0-.161-.682l-.055-.035A.455.455,0,0,0,1226.275-1394.46Zm-2.874-1.773a.5.5,0,0,0-.417.245.469.469,0,0,0-.053.358.548.548,0,0,0,.243.341.483.483,0,0,0,.26.075.5.5,0,0,0,.422-.234.5.5,0,0,0-.16-.682l-.057-.034A.448.448,0,0,0,1223.4-1396.233Zm-2.874-1.773a.5.5,0,0,0-.416.246.527.527,0,0,0,.187.7.5.5,0,0,0,.261.074.5.5,0,0,0,.422-.234.49.49,0,0,0,.062-.372.493.493,0,0,0-.221-.309l-.056-.035A.453.453,0,0,0,1220.526-1398.006Zm35.387,22.223h-.613a.483.483,0,0,0,.162-.162.49.49,0,0,0,.062-.373.493.493,0,0,0-.221-.309l-.056-.034a.457.457,0,0,0-.238-.068.5.5,0,0,0-.417.246.47.47,0,0,0-.053.359.547.547,0,0,0,.242.339h0l-5.586,0a12.664,12.664,0,0,0,2.893-1.706.517.517,0,0,0,.075.005.5.5,0,0,0,.423-.234.5.5,0,0,0,.074-.249,12.744,12.744,0,0,0,3.25-4.49v6.672Zm-15.5,0h-2.584a.539.539,0,0,0,.032-.046l.035-.056a.472.472,0,0,0-.178-.654.454.454,0,0,0-.24-.067.553.553,0,0,0-.238.056v-2.386a8.1,8.1,0,0,0,3.174,3.151Zm3.888-.33h-.013l0-6.728v-4.236h.016v10.964Zm.331-.005h0v-10.941a.448.448,0,0,0,.057-.017H1255.6a11.311,11.311,0,0,1-10.963,10.959Zm4.624-4.158a.5.5,0,0,0-.417.246.47.47,0,0,0-.047.382.556.556,0,0,0,.236.317.49.49,0,0,0,.26.074.5.5,0,0,0,.423-.234.489.489,0,0,0,.061-.373.493.493,0,0,0-.222-.309l-.055-.034A.45.45,0,0,0,1249.261-1380.276Zm-2.9-1.778a.489.489,0,0,0-.421.235.488.488,0,0,0-.061.374.491.491,0,0,0,.224.307l.057.035a.5.5,0,0,0,.258.073.5.5,0,0,0,.423-.236.5.5,0,0,0-.162-.681l-.059-.035A.5.5,0,0,0,1246.364-1382.054Zm-2.406,5.933h0a6.772,6.772,0,0,1-4.775-2.338h.031a.5.5,0,0,0,.422-.234l.036-.056a.472.472,0,0,0-.178-.653.458.458,0,0,0-.24-.067.552.552,0,0,0-.458.254.484.484,0,0,0-.066.167,6.694,6.694,0,0,1-1.167-3.463h6.4v6.389Zm-2.937-6.211a.551.551,0,0,0-.46.258.5.5,0,0,0,.165.68.49.49,0,0,0,.258.073.5.5,0,0,0,.423-.238l.033-.057a.44.44,0,0,0,.056-.339.508.508,0,0,0-.237-.312A.456.456,0,0,0,1241.021-1382.332Zm-35.815,2.317h0V-1476h.547v69.249h-.175v24.66C1205.431-1381.41,1205.307-1380.712,1205.206-1380.015Zm37.852-3.157h-1.594v-3.577a.665.665,0,0,0,.574-.329h1.92v3.5a.476.476,0,0,0-.149-.145l-.056-.034a.448.448,0,0,0-.238-.069.5.5,0,0,0-.417.246.48.48,0,0,0-.04.4Zm-.268-2.023a.556.556,0,0,0-.459.255.5.5,0,0,0,.161.682.485.485,0,0,0,.259.074.494.494,0,0,0,.422-.234l.034-.057a.437.437,0,0,0,.059-.338.508.508,0,0,0-.235-.315A.454.454,0,0,0,1242.79-1385.195Zm-1.656,2.023h-3.568a3.9,3.9,0,0,1,1.133-2.43,3.916,3.916,0,0,1,2.434-1.132v1.476a.491.491,0,0,0-.2-.236l-.057-.034a.506.506,0,0,0-.26-.073.493.493,0,0,0-.423.236.5.5,0,0,0,.164.681l.056.034a.5.5,0,0,0,.26.074.5.5,0,0,0,.423-.237.389.389,0,0,0,.037-.073v1.713Zm-35.05-.971h0v-21.722a.457.457,0,0,0,.11.013.5.5,0,0,0,.422-.234.492.492,0,0,0,.069-.335h22.285A32.106,32.106,0,0,0,1206.084-1384.142Zm8.672-17.416a.488.488,0,0,0-.424.241.487.487,0,0,0-.058.373.491.491,0,0,0,.226.306l.058.035a.5.5,0,0,0,.254.071.5.5,0,0,0,.426-.24.489.489,0,0,0,.057-.374.492.492,0,0,0-.227-.306l-.056-.034A.5.5,0,0,0,1214.756-1401.558Zm-2.85-1.767a.5.5,0,0,0-.416.246.472.472,0,0,0-.047.382.553.553,0,0,0,.236.317.482.482,0,0,0,.26.074.493.493,0,0,0,.42-.234.487.487,0,0,0,.063-.372.491.491,0,0,0-.222-.309l-.056-.035A.459.459,0,0,0,1211.906-1403.325Zm-2.9-1.779a.493.493,0,0,0-.423.236.488.488,0,0,0-.06.372.494.494,0,0,0,.223.308l.056.036a.512.512,0,0,0,.26.073.5.5,0,0,0,.423-.236.494.494,0,0,0,.06-.375.489.489,0,0,0-.223-.306l-.057-.036A.5.5,0,0,0,1209.011-1405.1Zm27.867,19.746v-20.734h.039v18.685h-.016l0,2.015-.01.02-.007.014Zm.367-.571v-1.148h.083a.53.53,0,0,0,.212.654.451.451,0,0,0,.08.04,5.42,5.42,0,0,0-.374.451Zm6.824-1.807h-2.028a.664.664,0,0,0-.573-.33,5.217,5.217,0,0,0-1.832.33h-2.39v-18.351a18.721,18.721,0,0,1,14.021,6.728.535.535,0,0,0-.086.1.5.5,0,0,0,.161.682.485.485,0,0,0,.259.074.5.5,0,0,0,.28-.085,18.505,18.505,0,0,1,3.723,10.847h-10.587a.512.512,0,0,0-.215-.253.448.448,0,0,0-.24-.067.551.551,0,0,0-.458.254.42.42,0,0,0-.034.066Zm2.261-3.184a.55.55,0,0,0-.458.255.5.5,0,0,0,.16.681.5.5,0,0,0,.261.074.494.494,0,0,0,.421-.234l.033-.056a.437.437,0,0,0,.059-.337.509.509,0,0,0-.235-.315A.454.454,0,0,0,1246.329-1390.92Zm1.77-2.862a.548.548,0,0,0-.457.254.493.493,0,0,0-.062.374.49.49,0,0,0,.22.307.5.5,0,0,0,.261.074.5.5,0,0,0,.422-.234l.034-.055a.446.446,0,0,0,.052-.36.516.516,0,0,0-.229-.293A.461.461,0,0,0,1248.1-1393.783Zm1.77-2.864a.55.55,0,0,0-.46.258.493.493,0,0,0-.058.375.49.49,0,0,0,.223.306.489.489,0,0,0,.257.073.5.5,0,0,0,.424-.238l.033-.056a.44.44,0,0,0,.056-.34.509.509,0,0,0-.238-.312A.456.456,0,0,0,1249.869-1396.647Zm6.523,4.635c-.039-.167-.083-.342-.133-.532v-13.877h.135v14.409Zm-.481-1.691a20.133,20.133,0,0,0-12.787-12.718h12.789v12.718Zm-2.5-8.67a.552.552,0,0,0-.458.254.5.5,0,0,0,.159.682.5.5,0,0,0,.261.074.5.5,0,0,0,.422-.233l.035-.057a.444.444,0,0,0,.052-.36.517.517,0,0,0-.23-.294A.458.458,0,0,0,1253.407-1402.373Zm1.77-2.863a.551.551,0,0,0-.458.255.491.491,0,0,0-.061.374.491.491,0,0,0,.221.308.5.5,0,0,0,.26.075.5.5,0,0,0,.422-.234l.034-.057a.47.47,0,0,0-.176-.653A.461.461,0,0,0,1255.177-1405.236Zm82.5-1.845h-97.144a20.2,20.2,0,0,0-3.641-.331,32.36,32.36,0,0,0-4.615.331h-26.2V-1476h92.9a.489.489,0,0,0,.136.123.478.478,0,0,0,.26.075.5.5,0,0,0,.4-.2h18.2a131.239,131.239,0,0,1,14.492,32.509A131.507,131.507,0,0,1,1337.677-1407.081Zm-80.73-1.017a.55.55,0,0,0-.458.254.5.5,0,0,0,.158.682.5.5,0,0,0,.261.074.5.5,0,0,0,.422-.234l.033-.056a.439.439,0,0,0,.059-.338.51.51,0,0,0-.235-.315A.456.456,0,0,0,1256.947-1408.1Zm1.769-2.865a.551.551,0,0,0-.461.259.5.5,0,0,0,.167.681.5.5,0,0,0,.257.071.5.5,0,0,0,.424-.237l.034-.057a.444.444,0,0,0,.05-.36.517.517,0,0,0-.232-.292A.456.456,0,0,0,1258.716-1410.963Zm1.769-2.862a.551.551,0,0,0-.458.254.5.5,0,0,0,.159.682.5.5,0,0,0,.261.074.492.492,0,0,0,.421-.234l.035-.056a.438.438,0,0,0,.058-.338.512.512,0,0,0-.235-.316A.461.461,0,0,0,1260.485-1413.825Zm1.768-2.9a.49.49,0,0,0-.422.235l-.034.056a.491.491,0,0,0-.06.374.492.492,0,0,0,.222.307.494.494,0,0,0,.258.073.49.49,0,0,0,.423-.236l.035-.056a.5.5,0,0,0-.164-.681A.5.5,0,0,0,1262.252-1416.723Zm1.772-2.828a.552.552,0,0,0-.459.255.5.5,0,0,0,.16.681.492.492,0,0,0,.26.075.5.5,0,0,0,.422-.234l.034-.057a.47.47,0,0,0-.176-.653A.462.462,0,0,0,1264.025-1419.551Zm1.768-2.863a.549.549,0,0,0-.457.255.49.49,0,0,0-.062.374.493.493,0,0,0,.221.308.489.489,0,0,0,.26.074.5.5,0,0,0,.422-.234l.034-.056a.438.438,0,0,0,.059-.338.512.512,0,0,0-.236-.316A.457.457,0,0,0,1265.793-1422.414Zm1.77-2.863a.549.549,0,0,0-.457.255.49.49,0,0,0-.062.373.491.491,0,0,0,.221.308.493.493,0,0,0,.26.075.5.5,0,0,0,.421-.234l.035-.057a.471.471,0,0,0-.178-.654A.454.454,0,0,0,1267.563-1425.277Zm1.77-2.863a.554.554,0,0,0-.459.255.5.5,0,0,0,.161.681.49.49,0,0,0,.261.075.494.494,0,0,0,.421-.234l.035-.057a.47.47,0,0,0-.177-.653A.457.457,0,0,0,1269.332-1428.14ZM1271.1-1431a.548.548,0,0,0-.459.258.5.5,0,0,0,.164.68.5.5,0,0,0,.258.073.5.5,0,0,0,.423-.238l.035-.057a.444.444,0,0,0,.049-.361.516.516,0,0,0-.232-.291A.456.456,0,0,0,1271.1-1431Zm1.769-2.863a.551.551,0,0,0-.457.254.492.492,0,0,0-.061.375.489.489,0,0,0,.22.307.5.5,0,0,0,.261.075.5.5,0,0,0,.421-.234l.035-.056a.47.47,0,0,0-.178-.653A.457.457,0,0,0,1272.871-1433.866Zm1.767-2.9a.491.491,0,0,0-.422.235l-.035.056a.5.5,0,0,0,.164.681.491.491,0,0,0,.259.073.5.5,0,0,0,.422-.236l.033-.056a.5.5,0,0,0-.162-.681A.5.5,0,0,0,1274.638-1436.764Zm1.772-2.829a.549.549,0,0,0-.458.254.493.493,0,0,0-.061.375.489.489,0,0,0,.221.307.5.5,0,0,0,.26.075.492.492,0,0,0,.421-.234l.036-.057a.471.471,0,0,0-.178-.653A.457.457,0,0,0,1276.41-1439.593Zm1.77-2.863a.554.554,0,0,0-.459.255.5.5,0,0,0,.161.681.489.489,0,0,0,.26.075.5.5,0,0,0,.421-.234l.036-.057a.471.471,0,0,0-.179-.653A.454.454,0,0,0,1278.18-1442.456Zm1.769-2.863a.549.549,0,0,0-.459.258.492.492,0,0,0-.059.375.489.489,0,0,0,.223.3.5.5,0,0,0,.258.073.5.5,0,0,0,.423-.238l.033-.057a.469.469,0,0,0-.182-.652A.453.453,0,0,0,1279.949-1445.319Zm1.77-2.862a.555.555,0,0,0-.459.255.491.491,0,0,0-.061.373.492.492,0,0,0,.222.308.488.488,0,0,0,.26.075.5.5,0,0,0,.422-.234l.034-.057a.47.47,0,0,0-.177-.653A.457.457,0,0,0,1281.719-1448.181Zm1.769-2.864a.548.548,0,0,0-.457.255.5.5,0,0,0,.159.682.506.506,0,0,0,.261.074.5.5,0,0,0,.42-.234l.036-.056a.47.47,0,0,0-.177-.653A.458.458,0,0,0,1283.488-1451.045Zm1.769-2.864a.547.547,0,0,0-.457.255.5.5,0,0,0,.159.682.5.5,0,0,0,.261.075.491.491,0,0,0,.42-.234l.035-.056a.445.445,0,0,0,.052-.36.518.518,0,0,0-.23-.294A.458.458,0,0,0,1285.257-1453.909Zm1.77-2.863a.55.55,0,0,0-.458.255.5.5,0,0,0,.161.682.489.489,0,0,0,.26.075.491.491,0,0,0,.42-.234l.036-.056a.47.47,0,0,0-.178-.654A.455.455,0,0,0,1287.027-1456.772Zm1.771-2.862a.551.551,0,0,0-.46.258.5.5,0,0,0,.165.68.493.493,0,0,0,.257.072.492.492,0,0,0,.424-.238l.034-.055a.471.471,0,0,0-.184-.653A.451.451,0,0,0,1288.8-1459.634Zm1.769-2.864a.553.553,0,0,0-.458.255.5.5,0,0,0,.16.682.493.493,0,0,0,.261.074.5.5,0,0,0,.421-.234l.034-.056a.469.469,0,0,0-.176-.653A.455.455,0,0,0,1290.566-1462.5Zm1.768-2.9a.494.494,0,0,0-.422.235l-.035.057a.5.5,0,0,0,.162.68.488.488,0,0,0,.258.075.505.505,0,0,0,.424-.235l.034-.057a.5.5,0,0,0-.162-.681A.494.494,0,0,0,1292.334-1465.4Zm1.77-2.828a.551.551,0,0,0-.458.255.5.5,0,0,0,.159.682.5.5,0,0,0,.262.075.5.5,0,0,0,.421-.234l.035-.057a.443.443,0,0,0,.052-.36.52.52,0,0,0-.23-.294A.457.457,0,0,0,1294.1-1468.223Zm1.77-2.863a.549.549,0,0,0-.457.255.5.5,0,0,0,.16.682.5.5,0,0,0,.259.074.5.5,0,0,0,.423-.234l.033-.056a.469.469,0,0,0-.176-.653A.459.459,0,0,0,1295.874-1471.086Zm1.771-2.862a.55.55,0,0,0-.46.257.5.5,0,0,0-.058.375.489.489,0,0,0,.223.305.488.488,0,0,0,.257.072.492.492,0,0,0,.424-.238l.034-.055a.47.47,0,0,0-.184-.653A.455.455,0,0,0,1297.645-1473.949ZM1339-1407.3h0c-.018-4.259-.239-8.548-.658-12.75v-53.431A5,5,0,0,1,1339-1471Zm-.993-15.747a132.294,132.294,0,0,0-6.5-27.744A132.937,132.937,0,0,0,1319.524-1476H1334a4.961,4.961,0,0,1,4.01,2.012v50.938Z" transform="translate(-990 1476)"/></svg>
