<svg xmlns="http://www.w3.org/2000/svg" xmlns:xlink="http://www.w3.org/1999/xlink" width="414" height="896" viewBox="0 0 414 896"><defs><style>.a{mix-blend-mode:color-dodge;isolation:isolate;fill:url(#a);}</style><radialGradient id="a" cx="0.5" cy="0.5" r="0.912" gradientTransform="translate(0.167) scale(0.667 1)" gradientUnits="objectBoundingBox"><stop offset="0.179"/><stop offset="0.253" stop-color="#000B2E"/><stop offset="0.774" stop-color="#00225B"/><stop offset="1" stop-color="#00225B"/></radialGradient></defs><path class="a" d="M201.007,414l228.8-228.67L193.107,414Zm-87.9,0,316.7-228.67L107.991,414Zm28.682,0L429.81,185.33,139.544,414Zm29.742,0L429.81,185.33,167.073,414Zm-87.186,0L429.81,185.33,73.939,414Zm-36.385,0L429.81,185.33,41.959,414ZM0,400.794,429.81,185.33,0,397.444ZM10.426,414,429.81,185.33,7.338,414Zm214.565,0L429.81,185.33,221.024,414Zm119.176,0L429.81,185.33,342.631,414Zm23.458,0L429.81,185.33,364.429,414Zm24.115,0,38.07-228.67-44,228.67Zm20.492,0L429.81,185.33,409.111,414ZM0,384.356,429.81,185.33,0,378.488ZM274.825,414,429.81,185.33,271.218,414Zm47.256,0L429.81,185.33,318.727,414Zm-72.773,0,180.5-228.67L247.53,414Zm51.292,0L429.81,185.33,294.066,414ZM0,240.311,429.81,185.33,0,236.683Zm0-19.2L429.81,185.33,0,220.235ZM433.585,414,429.81,185.33,432.119,414ZM0,230.428l429.81-45.1L0,228.535Zm0,18.206,429.81-63.3L0,246.674Zm0-35.693L429.81,185.33,0,211.091Zm0-17.053L429.81,185.33,0,194.058Zm0,61.69L429.81,185.33,0,256.635Zm0-52.372L429.81,185.33,0,201.74Zm0,93.968L429.81,185.33,0,298.107ZM0,337,429.81,185.33,0,334.41Zm0-69.092L429.81,185.33,0,265.853Zm0,82.469L429.81,185.33,0,349.088Zm0-38.915L429.81,185.33,0,309.106Zm0,13.586L429.81,185.33,0,320.4Zm0-45.968L429.81,185.33,0,275.093Zm0,9.592L429.81,185.33,0,286.489Zm0,77.621L429.81,185.33,0,363.386ZM480.621,414,429.81,185.33,474.666,414ZM896,291.831,429.81,185.33,896,294.179Zm0,24.2L429.81,185.33,896,318.557Zm0-11.764L429.81,185.33,896,305.41Zm0,69.569L429.81,185.33,896,376.934Zm0-94.365L429.81,185.33,896,283.752Zm0,79.169L429.81,185.33,896,360.015Zm0-30.791L429.81,185.33,896,332.819Zm0,15.189L429.81,185.33,896,345.8Zm0-73.344L429.81,185.33,896,271.9Zm0-69.174L429.81,185.33,896,204.266Zm0,20.027L429.81,185.33,896,221.5Zm0-9.88L429.81,185.33,896,212.667ZM456.578,414,429.81,185.33,453.453,414ZM896,229.5,429.81,185.33,896,231.551Zm0,19.56L429.81,185.33,896,251.179Zm0,10.717L429.81,185.33,896,260.8Zm0-21.561L429.81,185.33,896,242.132Zm0-46L429.81,185.33,896,194.2ZM572.805,414l-143-228.67L566.2,414ZM896,389.452,429.81,185.33,896,395.68ZM645.73,414,429.81,185.33,641.7,414ZM619,414,429.81,185.33,617.2,414Zm-23.912,0L429.81,185.33,591.435,414ZM0,186.945l429.81-1.616L0,186.084ZM523.266,414,429.81,185.33,521.719,414Zm-21.919,0L429.81,185.33,498.134,414Zm45.916,0L429.81,185.33,543.878,414Zm280.149,0L429.81,185.33,821.267,414Zm-31.677,0L429.81,185.33,785.078,414Zm67.017,0L429.81,185.33,859.585,414Zm28.259-6.492L429.81,185.33l458.8,224.523ZM674.732,414,429.81,185.33,666.692,414Zm85.5,0L429.81,185.33,755.009,414ZM700.3,414,429.81,185.33,695.767,414Zm27.927,0L429.81,185.33,725.945,414ZM896,6.229,429.81,185.33,896,7.629ZM663.09,0,429.81,185.33,664.909,0Zm23.228,0L429.81,185.33,690.461,0ZM615.7,0,429.81,185.33,622.112,0Zm94.6,0L429.81,185.33,718.752,0ZM638.979,0,429.81,185.33,642.592,0Zm160.34,0L429.81,185.33,805.154,0Zm31.308,0L429.81,185.33,842.8,0ZM739.115,0,429.81,185.33,743.979,0ZM769.54,0,429.81,185.33,772.041,0ZM480.055,0,429.81,185.33,482.645,0Zm115.6,0L429.81,185.33,598.87,0ZM461.079,0,429.81,185.33,465.889,0Zm55.9,0L429.81,185.33,519.695,0ZM443.912,0l-14.1,185.33L446.442,0ZM0,178.986l429.81,6.344L0,177.157ZM575.966,0,429.81,185.33,577.406,0Zm-20.7,0L429.81,185.33,558.193,0ZM499.093,0,429.81,185.33,500.339,0ZM896,116.647,429.81,185.33,896,118.773Zm0,19.754L429.81,185.33,896,138.456Zm0,10.1L429.81,185.33,896,147.453Zm0-20.736L429.81,185.33,896,129.693Zm0,29.611L429.81,185.33,896,157.38Zm0,8.425L429.81,185.33,896,167.552Zm0,19.773-466.19,1.76L896,184.5Zm0-9.69L429.81,185.33,896,175.865Zm0-139.9L429.81,185.33,896,39.012ZM869.782,0,429.81,185.33,876.968,0ZM896,48.462,429.81,185.33,896,51.021Zm0-27.719L429.81,185.33,896,23.555ZM896,61.8,429.81,185.33,896,62.955Zm0,21.961L429.81,185.33,896,88.078Zm0,11.974-466.19,89.6L896,97.963ZM896,73.2,429.81,185.33,896,75.569Zm0,33.732-466.19,78.4L896,107.955ZM534.964,0,429.81,185.33,540.263,0ZM0,75.706,429.81,185.33,0,74.651ZM0,53.778,429.81,185.33,0,49.19ZM7.122,0,429.81,185.33,19.646,0ZM0,87.184,429.81,185.33,0,85.022ZM0,25.6,429.81,185.33,0,24.331ZM0,40,429.81,185.33,0,37.45ZM0,11.621,429.81,185.33,0,8.764ZM0,98.447,429.81,185.33,0,94.493ZM0,64.883,429.81,185.33,0,62.554Zm0,97.106L429.81,185.33,0,160.142Zm0-9.121L429.81,185.33,0,151.99Zm0-45.286L429.81,185.33,0,105.543Zm0,37.034L429.81,185.33,0,142.731Zm0,26.7L429.81,185.33,0,167.858ZM0,116.7,429.81,185.33,0,115.766ZM0,126.6,429.81,185.33,0,124.647Zm0,9.924L429.81,185.33,0,132.91ZM295.7,0,429.81,185.33,298.66,0Zm38.758,0L429.81,185.33,337.2,0Zm-20.11,0L429.81,185.33,319.7,0Zm39.592,0L429.81,185.33,355.2,0Zm72.688,0,3.18,185.33L427.819,0ZM371.682,0,429.81,185.33,374.285,0ZM44.879,0,429.81,185.33,50.881,0ZM276.352,0,429.81,185.33,277.812,0Zm112.7,0,40.76,185.33L393.875,0Zm18.916,0L429.81,185.33,410.5,0ZM161.83,0,429.81,185.33,166.065,0ZM107.369,0,429.81,185.33,112.353,0Zm26.38,0L429.81,185.33,142.379,0ZM78.78,0,429.81,185.33,81.347,0ZM210.409,0l219.4,185.33L214.088,0ZM187.816,0,429.81,185.33,189.672,0Zm43.948,0L429.81,185.33,238.274,0Zm22.887,0L429.81,185.33,257.915,0Z" transform="translate(414) rotate(90)"/></svg>
