<?xml version="1.0" standalone="no"?>
<!DOCTYPE svg PUBLIC "-//W3C//DTD SVG 20010904//EN"
 "http://www.w3.org/TR/2001/REC-SVG-20010904/DTD/svg10.dtd">
<svg version="1.0" xmlns="http://www.w3.org/2000/svg"
 width="1051.000000pt" height="1051.000000pt" viewBox="0 0 1051.000000 1051.000000"
 preserveAspectRatio="xMidYMid meet">
<metadata>
Created by potrace 1.11, written by Peter Selinger 2001-2013
</metadata>
<g transform="translate(0.000000,1051.000000) scale(0.100000,-0.100000)"
fill="#000000" stroke="none">
<path d="M5535 9735 c-16 -15 -25 -36 -25 -55 0 -30 37 -80 59 -80 5 0 8 -8 7
-17 -2 -10 -7 -85 -10 -168 -4 -82 -9 -161 -11 -175 -2 -14 -7 -90 -10 -170
-3 -80 -8 -167 -10 -195 -2 -27 -7 -104 -10 -170 -3 -66 -8 -151 -10 -190 -3
-38 -10 -160 -15 -270 -6 -110 -12 -227 -15 -260 -2 -33 -7 -116 -10 -185 -3
-69 -7 -147 -10 -175 -2 -27 -7 -104 -10 -170 -3 -66 -7 -147 -10 -180 -2 -33
-7 -118 -10 -190 -4 -71 -8 -148 -10 -170 -2 -22 -7 -107 -11 -190 -4 -82 -8
-157 -10 -165 -1 -8 -3 -25 -3 -37 -1 -13 -9 -24 -21 -28 -32 -10 -60 -46 -60
-76 0 -41 9 -58 42 -75 l29 -15 -6 -137 c-3 -75 -8 -150 -10 -167 -2 -16 -7
-100 -11 -185 -6 -146 -9 -169 -18 -159 -2 2 -9 123 -15 269 -6 146 -14 285
-16 310 -2 25 -7 104 -10 175 -3 72 -7 164 -10 205 -2 41 -7 127 -10 190 -3
63 -8 144 -10 180 -2 36 -7 124 -10 195 -3 72 -8 156 -11 188 l-6 57 34 0 c46
0 78 34 78 81 0 47 -34 79 -83 79 l-37 0 -1 78 c0 42 -2 95 -4 117 -2 22 -9
139 -15 260 -6 121 -13 249 -15 285 -2 36 -7 124 -10 195 -3 72 -8 161 -11
199 -5 67 -5 69 26 95 43 36 46 94 6 128 -37 31 -71 29 -107 -6 -41 -42 -38
-75 10 -120 l39 -36 6 -165 c4 -91 9 -183 11 -205 2 -22 6 -107 10 -190 3 -82
8 -168 10 -190 7 -72 19 -359 18 -420 0 -33 -4 -75 -8 -93 -5 -22 -3 -39 8
-55 10 -16 16 -68 21 -187 4 -91 9 -187 11 -215 2 -27 7 -108 10 -180 3 -71 8
-159 10 -195 2 -36 7 -121 10 -190 3 -69 8 -152 10 -185 2 -33 7 -125 10 -205
3 -80 8 -163 10 -185 2 -22 7 -112 11 -200 3 -88 8 -163 11 -167 2 -5 0 -8 -5
-8 -4 0 -18 64 -30 143 -19 125 -81 519 -358 2262 -77 486 -124 784 -194 1225
-28 179 -52 329 -53 334 -2 5 10 21 25 37 75 75 -22 184 -106 118 -49 -38 -25
-139 33 -139 14 0 21 -9 25 -37 67 -427 141 -893 161 -1018 14 -88 33 -203 41
-255 8 -52 35 -220 59 -373 25 -153 45 -282 45 -287 0 -6 -9 -1 -20 10 -24 24
-76 26 -106 6 -20 -14 -21 -10 -62 167 -23 100 -83 359 -133 575 l-91 392 21
18 c12 9 24 33 27 53 12 71 -67 117 -130 75 -53 -34 -27 -138 37 -148 17 -3
24 -21 48 -123 15 -66 61 -266 103 -445 276 -1192 396 -1712 396 -1716 0 -2
-14 -4 -31 -4 -21 0 -39 -9 -58 -29 l-28 -30 -172 460 c-156 416 -171 462
-158 477 50 56 15 141 -58 141 -101 0 -112 -148 -11 -161 28 -4 33 -16 357
-879 181 -481 329 -876 329 -879 0 -5 -721 1441 -1020 2045 -92 187 -305 615
-473 952 l-305 612 18 36 c15 29 16 42 8 66 -12 35 -60 63 -91 53 -91 -27 -89
-145 3 -160 l40 -7 139 -281 c156 -315 1008 -2029 1385 -2785 135 -272 245
-496 243 -497 -1 -1 -59 90 -128 204 -289 475 -401 659 -511 837 -31 50 -169
277 -308 505 -366 601 -714 1172 -775 1270 -29 47 -121 196 -203 332 -150 246
-151 248 -136 277 39 78 -61 160 -124 101 -60 -56 -26 -140 58 -144 33 -2 -82
183 1139 -1821 178 -291 379 -620 446 -730 427 -696 493 -807 472 -785 -8 8
-242 329 -522 713 -473 651 -507 701 -496 723 18 40 13 63 -18 95 -38 38 -74
38 -112 0 -35 -36 -37 -70 -5 -107 18 -21 32 -28 63 -28 l41 -1 525 -722 c289
-398 524 -723 522 -723 -1 0 -85 96 -186 212 -101 117 -433 503 -739 858 -306
355 -802 930 -1103 1279 l-546 634 6 48 c5 42 3 50 -20 73 -66 66 -165 -9
-131 -99 10 -24 62 -47 93 -40 26 6 42 -11 267 -272 640 -744 2185 -2536 2238
-2598 87 -100 31 -51 -236 206 -213 205 -217 210 -211 244 5 29 1 39 -26 66
-27 27 -37 31 -67 26 -35 -6 -37 -5 -835 775 l-800 782 6 38 c6 33 3 42 -23
68 -17 16 -40 30 -51 30 -82 0 -122 -103 -56 -146 30 -19 54 -24 81 -14 17 7
135 -104 820 -772 513 -501 798 -786 796 -797 -15 -79 11 -124 70 -125 18 0
38 2 44 4 11 5 371 -329 519 -480 79 -81 143 -127 -897 640 -507 373 -508 374
-508 410 0 45 -22 77 -59 85 -70 15 -125 -61 -91 -124 15 -30 64 -45 101 -32
17 6 36 8 43 4 19 -12 1410 -1055 1421 -1066 14 -14 23 -20 -455 277 -239 148
-516 320 -616 381 -99 62 -299 186 -445 277 -235 146 -486 302 -1084 673 -99
62 -247 154 -330 205 -444 275 -424 261 -418 290 6 35 -30 78 -74 86 -27 5
-37 1 -63 -24 -39 -39 -39 -74 -1 -113 33 -32 65 -37 98 -14 21 15 42 3 450
-251 235 -146 484 -301 553 -344 854 -529 1500 -931 1700 -1055 135 -84 305
-189 378 -234 72 -45 132 -84 132 -87 0 -3 -42 17 -92 44 -134 72 -532 283
-828 439 -140 74 -286 152 -325 173 -38 20 -340 180 -670 355 -330 175 -630
334 -667 354 -62 33 -68 39 -68 68 0 34 -19 59 -56 74 -47 17 -104 -25 -104
-78 0 -67 74 -105 128 -67 22 15 30 12 180 -69 86 -46 202 -108 257 -137 55
-29 132 -70 170 -90 39 -21 113 -60 165 -87 52 -28 192 -102 310 -165 118 -63
274 -146 345 -183 72 -37 182 -96 245 -130 63 -34 178 -95 255 -136 77 -40
178 -94 225 -119 47 -25 203 -107 348 -183 144 -76 262 -140 262 -142 0 -4
-29 9 -640 275 -212 93 -583 255 -825 360 -242 105 -489 213 -550 240 -192 84
-1438 627 -1492 650 -43 18 -53 27 -53 47 0 33 -51 83 -85 83 -16 0 -38 -12
-57 -30 -25 -26 -29 -36 -24 -62 13 -67 76 -96 126 -59 l29 21 403 -176 c222
-97 543 -237 713 -311 299 -130 830 -362 1760 -768 242 -105 486 -211 542
-235 56 -25 101 -46 99 -48 -2 -1 -46 13 -97 32 -52 19 -371 134 -709 256
-1758 633 -2065 743 -2068 745 -1 1 -4 12 -7 23 -15 81 -97 106 -145 45 -34
-44 -25 -95 21 -118 38 -20 62 -19 93 6 l26 21 1505 -543 c828 -298 1504 -544
1502 -545 -1 -2 -205 55 -452 127 -248 71 -630 181 -850 245 -220 63 -408 117
-417 120 -10 3 -18 13 -18 22 0 26 -28 62 -56 73 -37 14 -91 -12 -100 -48 -12
-45 -7 -66 21 -90 34 -30 79 -30 109 0 l22 22 432 -124 432 -124 -20 -22 c-22
-24 -26 -74 -9 -107 10 -19 9 -20 -12 -15 -13 3 -215 33 -449 67 -335 49 -427
65 -435 78 -5 9 -23 29 -38 45 -23 24 -33 28 -60 23 -18 -3 -43 -18 -56 -33
l-23 -27 -187 27 c-306 43 -944 137 -978 143 -19 4 -33 12 -33 21 0 26 -47 63
-80 63 -71 0 -107 -91 -55 -140 33 -31 79 -29 115 5 l28 27 178 -26 c568 -81
1006 -146 1013 -151 5 -2 11 -14 14 -25 4 -15 0 -20 -14 -20 -10 0 -179 18
-376 40 -197 22 -621 69 -943 105 -728 80 -670 72 -670 95 0 24 -46 60 -77 60
-32 0 -83 -51 -83 -84 0 -14 11 -37 24 -52 33 -39 89 -39 123 0 l24 29 102
-12 c56 -6 242 -27 412 -46 171 -19 596 -66 945 -105 349 -39 694 -77 765 -85
72 -8 211 -23 310 -35 99 -11 205 -23 235 -26 30 -3 66 -7 80 -9 14 -2 201
-23 415 -46 215 -23 395 -47 400 -52 7 -7 7 -8 0 -5 -5 3 -64 8 -130 12 -66 4
-151 9 -190 11 -58 4 -427 27 -795 50 -47 3 -119 7 -160 10 -41 3 -115 7 -165
10 -49 3 -119 8 -155 10 -36 2 -105 7 -155 10 -216 13 -726 45 -795 50 -41 2
-124 7 -185 10 -173 10 -195 14 -195 40 0 35 -78 58 -119 35 -31 -16 -46 -65
-31 -100 25 -60 94 -69 141 -19 l29 31 88 -6 c48 -3 130 -8 182 -11 52 -3 120
-8 150 -10 30 -3 102 -7 160 -10 58 -3 130 -7 160 -10 30 -2 102 -7 160 -10
58 -3 125 -7 150 -10 25 -2 99 -7 165 -10 66 -3 145 -8 175 -10 30 -3 172 -12
315 -20 143 -8 287 -17 320 -20 33 -2 103 -7 155 -10 52 -3 122 -8 155 -10 33
-3 105 -7 160 -10 158 -8 266 -15 320 -20 28 -2 106 -7 175 -11 69 -4 136 -8
150 -9 14 -2 45 -4 70 -6 53 -2 -60 -13 -245 -24 -66 -3 -136 -8 -155 -10 -19
-2 -87 -7 -150 -10 -63 -3 -131 -8 -151 -11 -30 -4 -37 -1 -49 20 -25 48 -98
57 -135 16 -20 -22 -22 -84 -5 -106 7 -8 11 -16 9 -18 -2 -2 -524 -68 -1160
-147 l-1156 -145 -25 28 c-52 57 -138 24 -138 -53 0 -72 84 -106 135 -54 14
13 25 31 25 40 0 8 5 15 10 15 6 0 119 14 253 30 133 17 316 40 405 50 90 11
176 22 190 24 15 3 52 7 82 11 71 8 208 25 240 30 119 19 1724 215 1733 211 7
-2 1 -5 -12 -5 -13 -1 -85 -12 -160 -26 -75 -13 -379 -67 -676 -120 -297 -52
-568 -100 -602 -106 -60 -11 -64 -10 -94 15 -39 33 -82 34 -114 1 -51 -50 -15
-135 58 -135 36 0 77 33 77 62 0 20 -49 10 680 138 999 176 1143 201 1146 197
3 -3 -253 -74 -1521 -423 -225 -62 -599 -165 -830 -228 -231 -64 -666 -184
-966 -267 l-547 -151 -21 21 c-50 50 -141 12 -141 -58 0 -67 83 -104 134 -60
15 13 28 34 29 47 2 26 -8 22 357 122 124 34 893 246 1709 471 816 225 1485
408 1487 406 1 -1 -321 -109 -717 -240 l-720 -237 -26 20 c-68 53 -160 -10
-132 -90 13 -36 36 -50 82 -50 38 0 64 23 76 66 7 27 23 33 404 160 473 158
457 153 457 122 0 -31 26 -67 59 -80 24 -10 -5 -26 -388 -215 -411 -203 -415
-205 -442 -189 -40 23 -67 20 -100 -13 -35 -36 -37 -70 -6 -106 48 -56 138
-26 141 46 1 32 2 33 261 159 143 70 404 198 580 285 524 258 788 385 791 382
5 -5 -40 -32 -1706 -1035 -470 -284 -895 -539 -945 -569 -55 -33 -95 -51 -105
-47 -89 40 -167 -25 -126 -104 17 -33 34 -42 75 -42 45 0 89 56 79 100 -2 8
118 86 322 209 672 406 2246 1352 2300 1384 63 36 18 1 -145 -114 -88 -62
-230 -162 -316 -223 -692 -491 -893 -631 -907 -628 -73 15 -81 14 -107 -13
-21 -20 -26 -34 -23 -59 4 -33 2 -34 -277 -232 -154 -109 -426 -303 -605 -430
-179 -127 -421 -299 -539 -382 -146 -104 -218 -149 -225 -142 -18 18 -84 12
-106 -10 -49 -49 -10 -140 61 -140 45 0 82 42 77 85 -4 39 -66 -9 507 397 187
133 517 367 733 520 274 194 397 276 405 270 17 -14 47 -17 79 -9 32 9 57 51
51 89 -3 24 8 35 119 114 159 113 325 231 858 609 239 169 451 320 470 333
l35 26 -25 -27 c-14 -14 -554 -499 -1200 -1076 -722 -645 -1179 -1046 -1185
-1040 -15 15 -71 10 -94 -8 -12 -10 -24 -35 -27 -55 -5 -30 -2 -41 19 -62 28
-27 73 -34 107 -16 22 12 39 59 33 92 -4 22 35 61 369 359 205 183 454 406
553 494 475 425 1412 1260 1430 1274 24 19 118 120 -1139 -1226 -950 -1018
-1020 -1091 -1042 -1083 -75 29 -138 -77 -79 -135 30 -31 73 -32 110 -3 24 19
27 26 23 69 l-5 49 1094 1172 c602 645 1110 1189 1130 1208 32 32 -58 -89
-477 -643 -80 -106 -251 -331 -379 -502 -129 -170 -243 -320 -254 -332 -14
-16 -32 -23 -58 -23 -82 0 -114 -97 -47 -144 70 -49 158 29 118 105 -10 19
141 223 998 1352 105 137 134 169 90 100 -13 -21 -104 -173 -204 -338 -179
-298 -180 -300 -216 -303 -107 -9 -105 -162 3 -162 63 0 101 73 65 125 -12 18
-5 35 80 175 52 85 151 250 221 367 70 116 129 210 131 209 2 -3 -95 -217
-343 -751 -20 -44 -140 -303 -266 -575 -830 -1798 -761 -1654 -797 -1661 -48
-10 -72 -36 -72 -79 0 -70 76 -104 134 -59 31 24 35 72 10 107 -18 26 -19 22
88 251 28 58 130 279 228 491 98 212 343 743 545 1180 202 437 397 859 433
937 36 79 67 141 68 140 2 -2 -52 -187 -119 -412 -80 -266 -128 -410 -138
-413 -47 -15 -71 -77 -45 -117 15 -24 11 -43 -111 -450 -77 -254 -133 -425
-140 -425 -67 0 -108 -90 -63 -138 43 -46 111 -36 134 20 15 34 8 68 -19 98
-12 14 3 73 112 436 122 410 126 421 149 416 13 -2 35 3 49 12 32 21 32 21 -1
-135 -23 -112 -106 -521 -246 -1204 -28 -137 -81 -398 -117 -579 l-67 -328
-29 -12 c-51 -22 -66 -54 -52 -109 9 -32 55 -57 93 -49 13 2 33 16 44 30 28
35 25 77 -6 108 l-25 26 96 471 c53 260 125 614 160 787 35 173 81 394 100
490 20 96 90 438 155 760 130 639 138 675 139 645 2 -32 -59 -632 -75 -742 -5
-33 -11 -43 -30 -47 -31 -8 -58 -60 -49 -95 10 -40 34 -61 71 -61 47 0 63 9
80 42 19 37 12 70 -23 102 l-26 24 38 354 c21 194 41 357 45 361 4 4 7 -81 8
-190 1 -109 5 -511 8 -893 l7 -696 -27 -12 c-75 -34 -47 -152 37 -152 38 0 74
28 83 64 6 25 -19 86 -36 86 -5 0 -15 7 -23 15 -13 13 -16 87 -16 522 -1 280
-3 684 -6 898 -4 381 -3 386 10 235 16 -195 21 -253 40 -525 8 -121 17 -245
20 -275 2 -30 7 -95 10 -145 3 -49 8 -110 10 -135 3 -25 7 -85 10 -135 3 -49
8 -115 10 -145 3 -30 7 -89 10 -130 3 -41 7 -100 10 -130 2 -30 7 -91 10 -135
13 -191 45 -646 50 -705 3 -36 14 -189 25 -340 11 -151 22 -302 25 -335 2 -33
7 -100 10 -150 3 -49 8 -108 10 -130 2 -22 9 -118 16 -212 l11 -173 -31 -29
c-37 -35 -41 -76 -10 -115 44 -56 139 -20 141 53 1 32 -34 81 -58 81 -15 0
-18 26 -44 390 -41 586 -50 716 -55 770 -3 30 -9 123 -15 205 -6 83 -12 177
-15 210 -7 80 -34 458 -40 565 -3 47 -8 105 -10 130 -3 25 -19 239 -35 475
-17 237 -32 453 -35 480 -2 28 -7 86 -10 130 -3 44 -9 143 -15 220 -17 239
-19 280 -15 265 2 -8 27 -172 55 -365 70 -479 128 -884 200 -1375 33 -228 65
-444 70 -480 5 -36 34 -232 64 -437 l55 -372 -29 -30 c-36 -36 -38 -70 -6
-107 46 -54 127 -30 142 43 5 27 2 37 -23 60 -16 15 -36 33 -45 38 -13 8 -26
79 -62 325 -25 173 -70 486 -101 695 -244 1667 -316 2168 -313 2176 3 8 459
-1768 458 -1781 0 -3 -20 -4 -44 -2 -37 3 -46 0 -65 -23 -28 -37 -27 -80 4
-110 30 -31 73 -32 109 -4 15 12 28 20 30 18 1 -2 73 -280 159 -618 153 -604
155 -614 136 -630 -11 -9 -22 -32 -25 -52 -5 -28 -1 -41 17 -63 56 -64 157
-13 141 70 -5 27 -46 64 -71 64 -13 0 -35 75 -110 368 -301 1176 -376 1470
-507 1981 -79 310 -143 566 -141 567 2 2 115 -343 251 -765 l249 -769 -22 -27
c-28 -37 -27 -80 4 -110 30 -31 73 -32 109 -4 51 40 25 139 -38 139 -28 0 -2
-74 -306 870 -111 344 -221 686 -245 760 -25 74 -43 135 -41 137 2 2 75 -162
163 -364 l161 -368 -19 -24 c-26 -33 -24 -73 6 -105 63 -68 172 12 129 95 -13
25 -68 54 -83 44 -7 -4 -334 735 -328 741 1 1 77 -129 169 -289 91 -161 300
-525 463 -810 282 -494 295 -519 280 -540 -23 -33 -18 -65 14 -98 36 -35 70
-37 107 -6 22 19 27 32 26 62 -2 49 -30 78 -76 79 l-34 1 -429 749 c-495 866
-448 784 -436 771 6 -5 289 -428 630 -940 341 -511 729 -1093 863 -1292 l242
-362 -13 -34 c-16 -46 -5 -83 31 -102 40 -21 64 -19 95 8 49 41 28 128 -34
142 -17 4 -35 4 -40 1 -5 -4 -21 8 -34 26 -61 83 -1816 2721 -1799 2703 12
-11 142 -162 291 -334 220 -257 268 -318 260 -332 -38 -72 48 -149 116 -105
76 50 27 168 -62 150 -27 -5 -43 11 -297 307 -148 172 -263 308 -255 303 8 -4
316 -291 686 -637 l673 -629 -6 -37 c-8 -52 26 -92 79 -94 50 -1 81 29 81 79
0 63 -55 96 -120 73 -10 -3 -1424 1306 -1424 1317 0 2 55 -33 123 -77 67 -45
230 -153 363 -240 l240 -159 -4 -34 c-8 -71 88 -116 138 -66 65 65 -19 173
-100 130 -16 -8 -79 30 -379 230 -199 132 -361 243 -361 246 0 3 3 3 8 1 4 -3
95 -47 202 -99 595 -288 561 -270 567 -300 11 -55 71 -82 126 -57 21 10 71
-12 430 -187 397 -192 407 -198 407 -226 0 -38 40 -78 78 -78 36 0 78 31 86
65 7 29 -15 79 -39 89 -29 11 -78 6 -95 -9 -15 -14 -42 -3 -291 118 -151 73
-334 162 -406 197 -130 62 -133 64 -133 96 0 39 -34 82 -70 88 -27 4 -76 -17
-82 -35 -2 -6 -125 49 -283 126 -154 75 -337 164 -408 197 -70 34 -126 63
-124 64 2 2 349 -100 773 -226 423 -127 846 -253 939 -281 l170 -51 20 -41
c26 -55 72 -71 113 -40 37 27 48 63 33 101 -22 53 -82 67 -128 28 l-28 -23
-922 275 c-508 152 -921 277 -920 279 2 2 48 -4 103 -12 346 -51 656 -97 699
-102 59 -7 85 -18 85 -38 0 -20 49 -55 76 -55 13 0 38 13 55 28 l32 28 111
-17 c115 -18 528 -79 674 -100 56 -8 82 -16 82 -25 0 -7 11 -25 24 -40 29 -35
87 -37 119 -5 32 31 28 87 -7 117 -15 13 -36 24 -46 24 -30 0 -69 -21 -75 -41
-5 -14 -13 -17 -33 -14 -15 3 -211 32 -437 65 -248 37 -412 66 -417 73 -4 7
-8 17 -8 23 0 22 -41 48 -77 48 -26 0 -42 -7 -59 -27 l-24 -28 -462 68 c-329
48 -451 70 -423 74 22 3 233 6 469 6 l429 2 28 -30 c35 -37 80 -39 115 -4 l24
24 413 1 c226 0 431 1 455 0 28 0 42 -4 42 -13 0 -25 40 -51 77 -51 42 0 83
40 83 80 0 33 -51 84 -83 84 -28 0 -77 -35 -77 -56 0 -12 -68 -14 -455 -14
-434 0 -455 1 -455 18 0 23 -38 59 -65 63 -38 6 -74 -11 -90 -41 l-16 -30
-362 -1 c-199 -1 -395 -3 -436 -3 -132 -3 -85 6 624 120 l149 24 26 -24 c58
-55 140 -26 140 49 0 93 -119 117 -155 32 l-13 -31 -432 -67 c-238 -37 -441
-70 -452 -73 -12 -2 -17 -1 -12 3 14 13 872 331 891 331 6 0 16 -7 23 -15 16
-19 70 -19 98 0 12 9 25 30 30 46 7 30 16 34 407 178 385 142 399 147 417 129
29 -29 81 -27 116 5 49 46 11 137 -58 137 -38 0 -80 -39 -80 -74 0 -17 -8 -27
-27 -34 -16 -5 -195 -71 -400 -147 l-372 -137 -27 21 c-15 12 -39 21 -55 21
-34 0 -78 -37 -82 -69 -2 -14 -10 -29 -18 -33 -20 -12 -823 -307 -826 -304 -3
2 145 85 558 312 l206 114 32 -16 c74 -37 145 32 115 111 -4 8 -20 23 -36 31
-58 30 -118 -6 -118 -71 0 -29 -9 -35 -173 -125 -94 -51 -246 -135 -337 -186
-179 -99 -264 -142 -239 -122 133 110 1495 1142 1503 1139 6 -2 28 -6 48 -9
30 -3 42 1 62 22 66 65 -9 164 -99 130 -24 -9 -47 -62 -41 -92 5 -25 -12 -40
-247 -218 -139 -106 -400 -306 -582 -444 -523 -400 -622 -475 -595 -448 14 14
243 218 510 454 704 622 1318 1165 1612 1426 l256 228 45 -6 c40 -6 49 -3 71
19 54 54 20 137 -56 137 -49 0 -81 -38 -76 -91 l3 -37 -1105 -977 c-608 -538
-1141 -1010 -1185 -1049 -70 -62 -74 -65 -35 -21 24 28 303 319 618 647 491
511 577 596 592 588 30 -16 50 -12 81 19 45 45 37 100 -18 129 -33 18 -59 15
-89 -11 -26 -23 -35 -64 -20 -97 4 -11 -165 -193 -575 -620 -319 -333 -596
-621 -616 -640 -33 -33 42 65 310 402 107 134 109 136 142 131 29 -5 39 0 65
25 17 17 30 41 30 55 0 34 -34 74 -70 82 l-31 7 44 61 c24 34 119 170 212 302
274 390 260 372 294 367 24 -3 37 2 61 26 36 37 38 71 6 108 -30 36 -86 39
-118 6 -21 -20 -23 -39 -16 -112 2 -19 -112 -187 -466 -690 -418 -593 -503
-711 -484 -675 5 10 1117 1817 1440 2340 118 191 159 250 175 251 52 3 75 15
89 49 35 84 -67 154 -131 90 -27 -27 -31 -52 -14 -100 10 -28 8 -36 -23 -85
-31 -48 -1055 -1709 -1257 -2040 -229 -373 -334 -541 -336 -538 -6 6 308 624
331 651 13 16 24 37 24 48 0 10 92 204 205 429 203 405 205 410 235 410 41 0
80 39 80 79 0 88 -122 116 -156 36 -14 -35 -7 -76 15 -89 6 -4 -69 -165 -189
-407 -199 -397 -201 -400 -222 -384 -13 8 -35 15 -51 15 -23 0 -28 4 -25 18
12 40 311 808 319 816 5 6 19 11 31 13 13 2 33 15 46 29 63 72 -27 173 -106
118 -39 -27 -45 -60 -22 -110 l21 -42 -171 -444 c-94 -244 -237 -615 -318
-824 -81 -210 -148 -381 -150 -379 -1 1 29 123 67 271 38 148 138 535 221 859
84 325 196 763 251 975 54 212 132 513 171 668 73 283 73 284 104 297 63 26
81 84 40 131 -18 22 -32 28 -61 27 -73 -2 -107 -75 -60 -131 l26 -31 -170
-663 c-156 -605 -587 -2280 -628 -2440 -9 -37 -19 -66 -20 -64 -2 2 10 79 26
172 17 93 60 336 96 539 36 204 93 523 126 710 80 454 78 445 95 445 9 0 29
14 46 30 25 26 29 36 24 63 -9 45 -39 71 -81 71 -42 0 -72 -26 -81 -70 -4 -24
0 -37 22 -63 l27 -32 -32 -182 c-17 -100 -63 -357 -101 -572 -39 -214 -98
-550 -132 -745 -69 -387 -77 -399 -59 -85 6 105 14 237 17 295 3 58 7 123 9
145 2 22 4 47 4 56 1 9 10 19 21 22 49 13 55 109 8 142 -23 15 -23 -1 2 420 5
88 12 207 15 265 3 58 7 139 10 180 2 41 7 120 10 175 11 202 22 402 30 535 7
109 14 231 25 440 6 102 12 219 15 260 2 41 7 127 10 190 3 63 7 142 10 175 3
33 8 123 11 200 4 77 8 147 10 155 1 8 3 38 3 66 1 47 4 52 26 58 28 7 56 52
50 82 -2 10 -4 22 -4 27 -1 4 -10 16 -21 27 -29 29 -84 27 -115 -5z m-514
-2477 c22 -134 71 -443 109 -688 39 -245 80 -501 90 -570 11 -69 27 -167 36
-218 9 -51 15 -95 12 -97 -4 -4 -144 589 -159 675 -4 25 -33 149 -63 275 -78
320 -186 790 -186 804 0 6 15 11 35 11 35 0 75 28 75 52 0 6 3 8 6 5 4 -4 24
-116 45 -249z m755 -1020 c-108 -251 -289 -658 -292 -655 -3 3 248 660 276
726 10 22 12 23 27 8 15 -15 14 -21 -11 -79z m-629 -165 c29 -125 51 -228 50
-230 -7 -6 -128 438 -122 447 3 6 9 10 13 10 4 0 31 -102 59 -227z m-106 198
c5 -5 157 -530 166 -576 2 -11 -48 117 -111 284 -64 168 -116 306 -116 308 0
5 54 -9 61 -16z m808 12 c0 -11 -158 -319 -158 -312 -1 6 125 294 136 312 2 4
8 7 14 7 5 0 9 -3 8 -7z m201 -123 c0 -6 -402 -515 -427 -540 -8 -8 79 119
194 282 179 256 210 295 221 280 6 -8 12 -19 12 -22z m-1503 -677 c166 -48
301 -89 299 -90 -4 -5 -173 31 -403 84 -185 43 -202 49 -206 70 -2 13 -2 23 2
23 3 0 142 -39 308 -87z m-1122 47 c110 -16 350 -51 534 -77 184 -26 328 -49
320 -51 -8 -1 -259 24 -557 58 -298 33 -549 60 -558 60 -16 0 -15 2 1 20 23
25 22 25 260 -10z m1222 -126 c117 -26 211 -49 209 -51 -4 -4 -622 85 -645 93
-11 3 -9 10 8 28 l22 23 97 -23 c53 -12 193 -44 309 -70z m-304 -11 c-7 -2
-19 -2 -25 0 -7 3 -2 5 12 5 14 0 19 -2 13 -5z m440 -80 c-13 -2 -33 -2 -45 0
-13 2 -3 4 22 4 25 0 35 -2 23 -4z m66 -97 c-2 -2 -121 -18 -264 -35 -143 -18
-277 -35 -297 -38 -37 -5 -37 -5 -25 20 11 24 15 25 142 32 71 4 137 9 145 10
8 2 76 6 150 10 74 4 137 9 139 11 2 2 7 2 9 -1 3 -3 3 -7 1 -9z m69 7 c-10
-2 -26 -2 -35 0 -10 3 -2 5 17 5 19 0 27 -2 18 -5z m-145 -50 c-7 -2 -19 -2
-25 0 -7 3 -2 5 12 5 14 0 19 -2 13 -5z m-103 -229 c-173 -86 -329 -162 -347
-169 l-32 -14 6 32 c3 18 8 35 12 39 7 8 652 267 666 267 6 0 -132 -69 -305
-155z m89 102 c-2 -2 -107 -45 -233 -96 -200 -79 -231 -89 -244 -77 -12 13 17
25 225 95 226 76 262 87 252 78z m648 -78 c-3 -8 -6 -5 -6 6 -1 11 2 17 5 13
3 -3 4 -12 1 -19z m-70 -70 c-3 -8 -6 -5 -6 6 -1 11 2 17 5 13 3 -3 4 -12 1
-19z m-80 -10 c-3 -8 -6 -5 -6 6 -1 11 2 17 5 13 3 -3 4 -12 1 -19z m-82 -403
c-68 -332 -85 -407 -85 -365 0 8 -9 23 -20 35 l-20 21 91 324 c49 179 93 336
96 350 4 14 8 20 10 14 2 -6 -30 -176 -72 -379z"/>
<path d="M4095 8755 c-52 -51 -15 -135 59 -135 42 0 76 37 76 82 0 39 -40 78
-80 78 -19 0 -40 -9 -55 -25z"/>
<path d="M8205 8585 c-51 -50 -15 -135 58 -135 44 0 77 34 77 81 0 72 -84 106
-135 54z"/>
<path d="M3613 8542 c-13 -2 -32 -15 -43 -29 -61 -78 41 -176 114 -110 67 59
19 153 -71 139z"/>
<path d="M8889 7991 c-38 -39 -38 -74 1 -113 26 -25 36 -29 63 -24 73 15 97
96 43 142 -37 32 -71 30 -107 -5z"/>
<path d="M1756 6179 c-58 -45 -21 -139 55 -139 72 0 106 84 54 135 -30 31 -73
32 -109 4z"/>
<path d="M7536 5748 c-24 -22 -30 -40 -27 -80 4 -58 102 -80 140 -32 63 80
-38 179 -113 112z"/>
<path d="M1651 5093 c-32 -26 -38 -82 -12 -114 39 -50 119 -39 139 20 27 78
-64 145 -127 94z"/>
<path d="M945 4485 c-64 -64 6 -166 90 -131 54 23 65 94 20 134 -35 29 -79 29
-110 -3z"/>
<path d="M1755 4455 c-52 -51 -17 -135 56 -135 59 0 86 32 79 95 -6 61 -90 86
-135 40z"/>
<path d="M1985 3815 c-58 -58 -10 -142 78 -136 57 4 79 102 31 140 -36 28 -79
27 -109 -4z"/>
<path d="M8195 3125 c-30 -30 -32 -73 -5 -107 38 -49 118 -37 138 21 29 83
-72 148 -133 86z"/>
<path d="M3314 2278 c-23 -11 -44 -48 -44 -77 0 -34 39 -71 75 -71 47 0 64 8
81 41 36 71 -39 143 -112 107z"/>
<path d="M8449 2185 c-15 -8 -32 -28 -38 -45 -28 -82 73 -147 134 -85 65 64
-16 172 -96 130z"/>
<path d="M2445 1935 c-46 -46 -29 -106 40 -135 65 -28 117 -8 130 50 18 82
-110 146 -170 85z"/>
<path d="M4843 1725 c-76 -32 -46 -155 37 -155 69 0 107 92 58 137 -31 27 -59
33 -95 18z"/>
<path d="M5244 1709 c-44 -22 -57 -91 -24 -127 43 -46 111 -36 134 20 15 34 6
77 -18 97 -20 17 -69 22 -92 10z"/>
<path d="M3622 1254 c-35 -24 -44 -59 -28 -99 23 -54 94 -65 134 -20 63 73
-27 174 -106 119z"/>
<path d="M6934 1240 c-26 -10 -54 -48 -54 -72 0 -105 159 -114 162 -10 1 35
-26 82 -46 82 -8 0 -20 2 -28 4 -7 3 -23 1 -34 -4z"/>
</g>
</svg>
